<svg width="209" height="173" viewBox="0 0 209 173" fill="none" xmlns="http://www.w3.org/2000/svg">
<path d="M103.565 171.696C150.542 171.696 188.624 133.487 188.624 86.354C188.624 39.2208 150.542 1.01172 103.565 1.01172C56.5874 1.01172 18.5049 39.2208 18.5049 86.354C18.5049 133.487 56.5874 171.696 103.565 171.696Z" fill="#D7E7FF"/>
<path d="M207.748 102.338L183.585 115.428C183.228 115.622 182.842 115.711 182.456 115.711C181.609 115.711 180.791 115.264 180.36 114.459L167.313 90.2161C166.689 89.0532 167.12 87.6069 168.279 86.9807C169.438 86.3545 170.88 86.7869 171.504 87.9499L182.099 107.63C185.829 93.854 185.888 79.3023 182.277 65.4662C178.488 51.0189 170.775 37.8985 159.972 27.5214C152.081 19.9474 142.942 14.1476 132.808 10.286C123.015 6.55862 112.732 4.78438 102.211 5.00802C91.6895 5.24658 81.4806 7.4681 71.866 11.6279C61.9097 15.9367 53.0381 22.1242 45.4892 30.0412C44.5827 30.9954 43.0818 31.0252 42.1308 30.1157C41.1797 29.2062 41.15 27.7004 42.0565 26.7461C50.0512 18.367 59.4577 11.8068 69.9936 7.24446C80.1729 2.84614 90.9762 0.490429 102.107 0.236967C113.237 -0.00158586 124.144 1.87702 134.502 5.81314C145.231 9.89835 154.905 16.0411 163.256 24.0624C174.699 35.0508 182.857 48.9465 186.869 64.2437C190.644 78.6612 190.644 93.8391 186.854 108.227L205.489 98.1182C206.648 97.492 208.089 97.9243 208.714 99.0873C209.338 100.265 208.907 101.711 207.748 102.338Z" fill="#71AAFF"/>
<path d="M167.569 54.0886C176.941 54.0886 184.539 46.4655 184.539 37.0619C184.539 27.6583 176.941 20.0352 167.569 20.0352C158.197 20.0352 150.599 27.6583 150.599 37.0619C150.599 46.4655 158.197 54.0886 167.569 54.0886Z" fill="white"/>
<path d="M198.982 27.2058C194.42 26.5349 191.002 22.569 191.002 17.947C191.002 16.7841 191.21 15.636 191.641 14.5625C192.295 12.8032 191.775 10.8202 190.333 9.62749C187.228 7.0034 183.691 4.94589 179.872 3.54439C178.103 2.88837 176.082 3.44002 174.909 4.93098C173.155 7.19723 170.45 8.50927 167.582 8.50927C164.714 8.50927 162.025 7.18232 160.256 4.93098C159.068 3.44002 157.061 2.88837 155.293 3.54439C151.771 4.84152 148.487 6.6903 145.545 9.0311C144.029 10.2388 143.464 12.2963 144.163 14.1153C144.623 15.2335 144.846 16.4262 144.846 17.6339C144.846 22.4199 141.176 26.4604 136.435 26.8927C134.519 27.1015 132.943 28.5477 132.587 30.4412C132.141 32.6329 131.918 34.8843 131.918 37.1207C131.918 38.9993 132.067 40.8779 132.364 42.7267C132.676 44.6947 134.266 46.2155 136.242 46.4243C140.983 46.8715 144.653 50.912 144.653 55.6831C144.653 57.0249 144.371 58.3519 143.806 59.5596C142.974 61.3636 143.479 63.5106 145.025 64.763C148.116 67.3424 151.623 69.3551 155.397 70.7566C155.873 70.9206 156.378 71.0101 156.898 71.025C158.31 71.025 159.647 70.3243 160.464 69.1613C162.188 66.6416 165.041 65.1507 168.073 65.1507C171.015 65.1507 173.779 66.5521 175.533 68.9228C176.707 70.5181 178.832 71.1145 180.674 70.3839C184.122 68.9973 187.332 67.074 190.185 64.6885C191.656 63.4659 192.176 61.4233 191.463 59.649C190.987 58.501 190.735 57.2784 190.735 56.026C190.735 51.3444 194.271 47.3486 198.908 46.7821C200.795 46.5137 202.311 45.0526 202.638 43.1591C203.024 41.1761 203.232 39.1484 203.262 37.1207C203.262 34.9886 203.069 32.8566 202.667 30.7543C202.311 28.9204 200.84 27.4742 198.982 27.2058ZM179.456 37.1356C179.456 43.6809 174.091 49.0632 167.568 49.0632C161.044 49.0632 155.679 43.6809 155.679 37.1356C155.679 30.5903 161.044 25.208 167.568 25.208C174.091 25.208 179.456 30.5903 179.456 37.1356Z" fill="#FFAD4F"/>
<path fill-rule="evenodd" clip-rule="evenodd" d="M157.773 152.134C156.525 153.178 155.232 154.192 153.909 155.161C152.527 156.19 151.101 157.174 149.659 158.098C148.292 158.993 146.895 159.843 145.469 160.648C144.161 161.393 142.824 162.109 141.471 162.78L100.71 105.661C85.7902 108.718 74.6451 109.821 65.2237 96.5963C57.8531 86.264 56.0995 73.5909 59.3539 62.2596L59.2499 52.7622H63.4702L88.4651 87.7848L88.7028 88.1128L107.085 86.6069L114.396 69.6249L89.1635 34.2744C91.2291 33.8271 93.3243 33.5438 95.4048 33.4395C108.541 32.7387 121.737 38.5534 129.955 50.0785C139.391 63.2884 139.629 80.3449 131.946 93.525L167.224 142.95C166.451 143.83 165.649 144.695 164.846 145.529C162.617 147.87 160.255 150.062 157.773 152.134Z" fill="#4992FF"/>
<path fill-rule="evenodd" clip-rule="evenodd" d="M164.848 145.53C162.619 147.856 160.256 150.063 157.76 152.12C156.512 153.164 155.219 154.178 153.896 155.147C152.514 156.175 151.088 157.16 149.646 158.084C148.279 158.978 146.882 159.828 145.456 160.633C144.148 161.379 142.81 162.095 141.458 162.765C140.418 163.287 139.363 163.779 138.308 164.271L101.35 112.49C86.4308 115.532 70.4264 109.807 60.9902 96.5969C51.4648 83.2529 51.3162 66.0025 59.2367 52.7479L84.4693 88.0985L88.4667 87.7704L102.851 86.5926L110.177 69.6255L84.9448 34.275C88.4072 33.5295 91.9291 33.2462 95.4213 33.44C107.101 34.0513 118.425 39.7915 125.751 50.0791C135.187 63.289 135.425 80.3455 127.742 93.5404L164.848 145.53Z" fill="#71AAFF"/>
<path fill-rule="evenodd" clip-rule="evenodd" d="M117.993 113.279L149.674 158.097C148.307 158.992 146.91 159.842 145.484 160.647L113.995 116.112L117.993 113.279ZM126.359 107.703L157.758 152.134C156.51 153.177 155.217 154.191 153.895 155.16L122.376 110.536L126.359 107.703Z" fill="#4992FF"/>
<path d="M165.903 145.693C157.908 154.072 148.502 160.632 137.966 165.194C127.787 169.593 116.983 171.948 105.853 172.202C105.214 172.217 104.56 172.217 103.921 172.217C93.4596 172.217 83.2209 170.338 73.4578 166.611C62.7287 162.526 53.0547 156.383 44.7033 148.362C32.5625 136.702 24.1665 121.882 20.4366 105.497C17.2268 91.4518 17.5686 76.915 21.3876 63.1385L3.71886 75.3644C2.63406 76.1098 1.1629 75.8415 0.419893 74.7531C-0.323117 73.6647 -0.0556338 72.1886 1.02916 71.4432L23.6464 55.803C24.1665 55.4452 24.8055 55.311 25.4296 55.4154C26.0537 55.5347 26.6036 55.8925 26.9602 56.3994L27.302 56.8914L27.3168 56.9063L27.406 57.0256L27.4209 57.0405L42.5634 79.0768C43.3064 80.1652 43.0389 81.6413 41.9541 82.3868C41.5381 82.67 41.0774 82.8042 40.6019 82.8042C39.844 82.8042 39.101 82.4464 38.6403 81.7755L26.2023 63.6604C22.413 76.9 22.0118 90.8703 25.1027 104.393C28.6245 119.869 36.5599 133.869 48.0171 144.873C55.9079 152.447 65.0469 158.247 75.1815 162.108C84.9596 165.836 95.2577 167.61 105.779 167.371C116.3 167.148 126.509 164.911 136.123 160.751C146.08 156.442 154.951 150.255 162.5 142.323C163.407 141.369 164.907 141.339 165.858 142.249C166.78 143.218 166.81 144.738 165.903 145.693Z" fill="#71AAFF"/>
</svg>
