<svg width="24" height="24" viewBox="0 0 24 24" fill="none" xmlns="http://www.w3.org/2000/svg">
<path d="M20.9085 8.18824C19.3093 9.17647 18.3215 10.8706 18.3215 12.7529C18.3215 14.8706 19.5915 16.8 21.52 17.6C21.1437 18.8235 20.5793 19.9529 19.8737 20.9882C18.8389 22.4471 17.7571 23.9529 16.1579 23.9529C14.5587 23.9529 14.0883 23.0118 12.2068 23.0118C10.3724 23.0118 9.71393 24 8.20877 24C6.70361 24 5.66882 22.6353 4.49292 20.9412C2.94072 18.5882 2.04704 15.8588 2 12.9882C2 8.32941 5.01031 5.83529 8.02063 5.83529C9.61986 5.83529 10.9369 6.87059 11.9246 6.87059C12.8653 6.87059 14.3705 5.78824 16.1579 5.78824C18.0393 5.74118 19.8267 6.63529 20.9085 8.18824ZM15.3112 3.81176C16.1108 2.87059 16.5342 1.69412 16.5812 0.470588C16.5812 0.329412 16.5812 0.141176 16.5342 0C15.1701 0.141176 13.9001 0.8 13.0065 1.83529C12.2068 2.72941 11.7365 3.85882 11.6894 5.08235C11.6894 5.22353 11.6894 5.36471 11.7365 5.50588C11.8306 5.50588 11.9717 5.55294 12.0657 5.55294C13.3357 5.45882 14.5116 4.8 15.3112 3.81176Z" fill="black"/>
</svg>
