<svg width="200" height="40" viewBox="0 0 200 40" fill="none" xmlns="http://www.w3.org/2000/svg">
<path d="M198.818 14.1935C199.471 14.1935 200 13.3269 200 12.258V1.93546C200 0.866496 199.471 0 198.818 0H13.7884V9.67742C13.7884 10.7464 13.2592 11.6129 12.6066 11.6129C11.9539 11.6129 11.4247 10.7463 11.4247 9.67742V0H1.18192C0.529185 0 0 0.866496 0 1.93546V12.258C0 13.327 0.529185 14.1935 1.18184 14.1935C3.13686 14.1935 4.72745 16.7982 4.72745 20C4.72745 23.2018 3.13694 25.8065 1.18184 25.8065C0.529185 25.8065 0 26.673 0 27.742V38.0645C0 39.1335 0.529185 40 1.18184 40H11.4246V30.3226C11.4246 29.2536 11.9538 28.3871 12.6065 28.3871C13.2591 28.3871 13.7883 29.2537 13.7883 30.3226V40H198.818C199.471 40 200 39.1334 200 38.0645V27.742C200 26.673 199.471 25.8065 198.818 25.8065C196.863 25.8065 195.272 23.2018 195.272 20C195.272 16.7982 196.863 14.1935 198.818 14.1935ZM13.7884 22.5806C13.7884 23.6496 13.2592 24.5161 12.6066 24.5161C11.9539 24.5161 11.4247 23.6495 11.4247 22.5806V17.4193C11.4247 16.3503 11.9539 15.4838 12.6066 15.4838C13.2592 15.4838 13.7884 16.3504 13.7884 17.4193V22.5806Z" fill="#3559E9"/>
</svg>
