<svg width="24" height="24" viewBox="0 0 24 24" fill="none" xmlns="http://www.w3.org/2000/svg">
<path d="M22.1113 6.46812L14.6113 2.34312C14.5005 2.28219 14.3762 2.25024 14.2498 2.25024C14.1234 2.25024 13.999 2.28219 13.8883 2.34312L6.38827 6.46812C6.27068 6.53286 6.17262 6.62798 6.10432 6.74354C6.03603 6.8591 6 6.99088 6 7.12512C6 7.25935 6.03603 7.39113 6.10432 7.50669C6.17262 7.62226 6.27068 7.71737 6.38827 7.78212L13.4998 11.6934V19.7326L11.2228 18.4801L10.4998 19.7934L13.8883 21.6571C13.999 21.7182 14.1233 21.7502 14.2498 21.7502C14.3762 21.7502 14.5006 21.7182 14.6113 21.6571L22.1113 17.5321C22.2289 17.4674 22.327 17.3723 22.3953 17.2567C22.4637 17.1412 22.4997 17.0094 22.4998 16.8751V7.12512C22.4997 6.99086 22.4637 6.85907 22.3953 6.7435C22.327 6.62793 22.2289 6.53283 22.1113 6.46812ZM14.2498 3.85662L20.1935 7.12512L14.2498 10.3936L8.30602 7.12512L14.2498 3.85662ZM20.9998 16.4319L14.9998 19.7319V11.6926L20.9998 8.39262V16.4319Z" fill="#3559E9"/>
<path d="M7.5 12H1.5V10.5H7.5V12ZM9 18H3V16.5H9V18ZM10.5 15H4.5V13.5H10.5V15Z" fill="#3559E9"/>
</svg>
