<svg width="135" height="100" viewBox="0 0 135 100" fill="none" xmlns="http://www.w3.org/2000/svg">
<path d="M67.1139 54.9201L26.0791 22.1138V77.8854H108.06V22.1138L67.1139 54.9201Z" fill="#18D771"/>
<path d="M26.0791 22.1138V77.8854L60.9592 49.9996L26.0791 22.1138ZM108.06 22.1138V77.8854L73.1802 49.9996L108.06 22.1138Z" fill="#72EFAC"/>
<path d="M26.0791 22.1138L31.0292 26.4107L64.6771 55.62C66.0666 56.624 68.0362 56.624 69.4257 55.62L103.105 26.4107L108.06 22.1138H26.0791Z" fill="#00A84E"/>
<path d="M112.639 34.5448C117.324 29.8433 117.324 22.2206 112.639 17.5191C107.955 12.8176 100.359 12.8176 95.6747 17.5191C90.99 22.2206 90.99 29.8433 95.6747 34.5448C100.359 39.2464 107.955 39.2464 112.639 34.5448Z" fill="#007E3B"/>
<path d="M109.006 27.6343V24.8205C109.006 24.1915 108.883 23.5687 108.643 22.9876C108.403 22.4065 108.051 21.8785 107.608 21.4338C107.165 20.9891 106.639 20.6363 106.06 20.3956C105.481 20.1549 104.86 20.031 104.234 20.031H104.233C102.968 20.031 101.754 20.5356 100.859 21.4338C99.9639 22.332 99.4611 23.5502 99.4611 24.8205V27.6343C99.4611 29.1646 99.0432 29.7492 98.2529 31.058H110.214C109.424 29.7492 109.006 29.1647 109.006 27.6343ZM104.234 33.4998C103.756 33.4998 103.298 33.3093 102.96 32.9703C102.622 32.6313 102.432 32.1715 102.432 31.692H106.035C106.035 32.1715 105.845 32.6313 105.507 32.9703C105.169 33.3093 104.711 33.4998 104.234 33.4998Z" fill="white"/>
<path d="M104.234 18.5637C103.945 18.5637 103.662 18.6498 103.422 18.811C103.182 18.9722 102.994 19.2013 102.884 19.4693C102.773 19.7374 102.744 20.0323 102.801 20.3169C102.857 20.6015 102.996 20.8629 103.201 21.068C103.405 21.2732 103.665 21.4129 103.949 21.4695C104.233 21.5261 104.526 21.4971 104.794 21.386C105.061 21.275 105.289 21.087 105.45 20.8457C105.61 20.6045 105.696 20.3209 105.696 20.0307C105.696 19.8381 105.658 19.6473 105.585 19.4693C105.511 19.2913 105.404 19.1296 105.268 18.9934C105.132 18.8572 104.971 18.7491 104.794 18.6754C104.616 18.6017 104.426 18.5637 104.234 18.5637ZM104.234 20.9121C104.06 20.9121 103.891 20.8604 103.746 20.7635C103.602 20.6667 103.489 20.529 103.423 20.368C103.356 20.2069 103.339 20.0297 103.373 19.8588C103.407 19.6878 103.49 19.5308 103.613 19.4075C103.736 19.2843 103.893 19.2003 104.063 19.1663C104.233 19.1323 104.41 19.1498 104.57 19.2165C104.731 19.2832 104.868 19.3962 104.964 19.5411C105.061 19.686 105.112 19.8564 105.112 20.0307C105.112 20.1465 105.09 20.2611 105.046 20.368C105.001 20.475 104.937 20.5721 104.855 20.654C104.774 20.7358 104.677 20.8007 104.57 20.845C104.464 20.8893 104.349 20.9121 104.234 20.9121Z" fill="white"/>
</svg>
