<svg width="151" height="150" viewBox="0 0 151 150" fill="none" xmlns="http://www.w3.org/2000/svg">
<g clip-path="url(#clip0_7001_24765)">
<mask id="mask0_7001_24765" style="mask-type:luminance" maskUnits="userSpaceOnUse" x="0" y="0" width="151" height="150">
<path d="M150.5 0H0.5V150H150.5V0Z" fill="white"/>
</mask>
<g mask="url(#mask0_7001_24765)">
<path fill-rule="evenodd" clip-rule="evenodd" d="M24.7775 127.704C24.7775 131.571 27.9115 134.705 31.7785 134.705C51.2225 134.705 105.732 134.705 125.176 134.705C129.042 134.705 132.177 131.571 132.177 127.704H135.08C136.936 127.704 138.717 126.967 140.03 125.654C141.342 124.341 142.08 122.56 142.08 120.704C142.08 118.847 141.342 117.067 140.03 115.754C138.717 114.441 136.936 113.703 135.08 113.703C111.615 113.703 35.9045 113.703 12.4395 113.703C10.5825 113.703 8.80248 114.441 7.48948 115.754C6.17648 117.067 5.43848 118.847 5.43848 120.704C5.43848 122.56 6.17648 124.341 7.48948 125.654C8.80248 126.967 10.5825 127.704 12.4395 127.704H24.7775Z" fill="#F9FAF9"/>
<path fill-rule="evenodd" clip-rule="evenodd" d="M33.1974 122.427C33.1974 126.294 36.3314 129.428 40.1984 129.428C59.6424 129.428 114.152 129.428 133.596 129.428C137.462 129.428 140.597 126.294 140.597 122.427H143.5C145.356 122.427 147.137 121.69 148.45 120.377C149.762 119.064 150.5 117.283 150.5 115.427C150.5 113.57 149.762 111.79 148.45 110.477C147.137 109.164 145.356 108.426 143.5 108.426C120.035 108.426 44.3244 108.426 20.8594 108.426C19.0024 108.426 17.2224 109.164 15.9094 110.477C14.5964 111.79 13.8584 113.57 13.8584 115.427C13.8584 117.283 14.5964 119.064 15.9094 120.377C17.2224 121.69 19.0024 122.427 20.8594 122.427H33.1974Z" stroke="#71AAFF" stroke-width="0.4" stroke-miterlimit="3" stroke-linecap="round"/>
<path d="M125.117 32.8281L92.7754 65.1691" stroke="#0C371F" stroke-width="10" stroke-miterlimit="3" stroke-linecap="round"/>
<path d="M90.0254 32.8281H125.117" stroke="#1271FF" stroke-width="10" stroke-miterlimit="3" stroke-linecap="round"/>
<path d="M135.917 65.2207C135.916 65.2307 135.914 65.2423 135.912 65.2549C135.904 65.3154 135.892 65.4055 135.876 65.5234C135.844 65.7597 135.796 66.1088 135.735 66.5586C135.613 67.4583 135.437 68.7623 135.218 70.3799C134.779 73.6161 134.171 78.1081 133.49 83.1289C132.129 93.1704 130.481 105.33 129.334 113.801C128.53 119.731 123.466 124.155 117.482 124.155H40.833C34.8493 124.155 29.7851 119.731 28.9814 113.801C27.834 105.33 26.187 93.1704 24.8262 83.1289C24.1457 78.1081 23.5363 73.6161 23.0977 70.3799C22.8784 68.7623 22.702 67.4583 22.5801 66.5586C22.5191 66.1088 22.4715 65.7597 22.4395 65.5234C22.4235 65.4055 22.4115 65.3154 22.4033 65.2549C22.4016 65.2423 22.3998 65.2307 22.3984 65.2207H135.917Z" fill="#4992FF" stroke="#1271FF" stroke-width="0.100929"/>
<path fill-rule="evenodd" clip-rule="evenodd" d="M116.58 65.1699H15.9785C15.9785 65.1699 20.2745 96.8655 22.5695 113.808C23.3765 119.763 28.4615 124.205 34.4705 124.205H98.0885C104.097 124.205 109.183 119.763 109.99 113.808C112.286 96.8655 116.58 65.1699 116.58 65.1699Z" fill="#90BCFF"/>
<path fill-rule="evenodd" clip-rule="evenodd" d="M143.204 65.1696C143.204 63.5596 142.565 62.0166 141.427 60.8786C140.289 59.7406 138.746 59.1016 137.136 59.1016C118.831 59.1016 64.2916 59.1016 45.9851 59.1016C44.3763 59.1016 42.832 59.7406 41.6944 60.8786C40.5568 62.0166 39.917 63.5596 39.917 65.1696C39.917 66.7796 40.5568 68.3226 41.6944 69.4606C42.832 70.5986 44.3763 71.2376 45.9851 71.2376C64.2916 71.2376 118.831 71.2376 137.136 71.2376C138.746 71.2376 140.289 70.5986 141.427 69.4606C142.565 68.3226 143.204 66.7796 143.204 65.1696Z" fill="#90BCFF"/>
<path fill-rule="evenodd" clip-rule="evenodd" d="M122.016 65.1696C122.016 63.5596 121.378 62.0166 120.24 60.8786C119.102 59.7406 117.558 59.1016 115.949 59.1016C96.2391 59.1016 34.1599 59.1016 14.4515 59.1016C12.8413 59.1016 11.2985 59.7406 10.1606 60.8786C9.02264 62.0166 8.38281 63.5596 8.38281 65.1696C8.38281 66.7796 9.02264 68.3226 10.1606 69.4606C11.2985 70.5986 12.8413 71.2376 14.4515 71.2376C34.1599 71.2376 96.2391 71.2376 115.949 71.2376C117.558 71.2376 119.102 70.5986 120.24 69.4606C121.378 68.3226 122.016 66.7796 122.016 65.1696Z" fill="#D7E7FF"/>
<path d="M47.6006 82.0381C48.6075 82.0381 49.5734 82.4374 50.2852 83.1494C50.9977 83.8614 51.3974 84.8269 51.3975 85.833V109.301C51.3974 110.308 50.9977 111.272 50.2852 111.984C49.5734 112.696 48.6075 113.097 47.6006 113.097C46.5938 113.097 45.6287 112.696 44.917 111.984C44.2053 111.272 43.8047 110.308 43.8047 109.301V85.833C43.8047 84.8269 44.2053 83.8614 44.917 83.1494C45.6286 82.4375 46.5938 82.0382 47.6006 82.0381Z" fill="#0C371F" stroke="#0C371F" stroke-width="0.0988615"/>
<path d="M66.2793 82.0381C67.2862 82.0381 68.2522 82.4374 68.9639 83.1494C69.6764 83.8614 70.0761 84.8269 70.0762 85.833V109.301C70.0761 110.308 69.6764 111.272 68.9639 111.984C68.2521 112.696 67.2862 113.097 66.2793 113.097C65.2725 113.097 64.3074 112.696 63.5957 111.984C62.884 111.272 62.4834 110.308 62.4834 109.301V85.833C62.4835 84.8269 62.884 83.8614 63.5957 83.1494C64.3073 82.4375 65.2725 82.0382 66.2793 82.0381Z" fill="#0C371F" stroke="#0C371F" stroke-width="0.0988615"/>
<path d="M84.958 82.0381C85.9649 82.0381 86.9309 82.4374 87.6426 83.1494C88.3551 83.8614 88.7548 84.8269 88.7549 85.833V109.301C88.7548 110.308 88.3551 111.272 87.6426 111.984C86.9308 112.696 85.9649 113.097 84.958 113.097C83.9512 113.097 82.9861 112.696 82.2744 111.984C81.5627 111.272 81.1622 110.308 81.1621 109.301V85.833C81.1622 84.8269 81.5627 83.8614 82.2744 83.1494C82.9861 82.4375 83.9512 82.0382 84.958 82.0381Z" fill="#0C371F" stroke="#0C371F" stroke-width="0.0988615"/>
<path d="M57.6836 65.1691L90.0256 32.8281" stroke="#90BCFF" stroke-width="10" stroke-miterlimit="3" stroke-linecap="round"/>
<path d="M57.6826 61.9941C59.4364 61.9941 60.8584 63.4161 60.8584 65.1699C60.8584 66.9237 59.4364 68.3457 57.6826 68.3457C55.9288 68.3457 54.5068 66.9237 54.5068 65.1699C54.5069 63.4162 55.9289 61.9942 57.6826 61.9941Z" fill="#4992FF" stroke="#1271FF" stroke-width="0.035752"/>
<path fill-rule="evenodd" clip-rule="evenodd" d="M26.2418 32.0941L22.8103 13.2324C22.6407 12.3 21.7459 11.6807 20.8135 11.8503C19.881 12.02 19.2617 12.9147 19.4314 13.8472L22.8629 32.7088C23.0326 33.6413 23.9273 34.2606 24.8597 34.0909C25.7922 33.9213 26.4115 33.0265 26.2418 32.0941Z" fill="#FFAD4F"/>
<path fill-rule="evenodd" clip-rule="evenodd" d="M13.9903 36.5655L8.88227 27.7518C8.40708 26.9318 7.35547 26.6519 6.53551 27.1272C5.71554 27.6024 5.43561 28.6539 5.9109 29.4739L11.019 38.2877C11.4942 39.1076 12.5457 39.3876 13.3657 38.9123C14.1857 38.4371 14.4656 37.3855 13.9903 36.5655Z" fill="#FFAD4F"/>
<path fill-rule="evenodd" clip-rule="evenodd" d="M40.1669 32.9842L41.8436 22.9361C41.9997 22.0012 41.3673 21.1157 40.4325 20.9597C39.4977 20.8036 38.6121 21.436 38.4561 22.3708L36.7794 32.4188C36.6234 33.3536 37.2557 34.2393 38.1905 34.3953C39.1254 34.5513 40.011 33.919 40.1669 32.9842Z" fill="#FFAD4F"/>
<path fill-rule="evenodd" clip-rule="evenodd" d="M46.8812 59.1035C45.1832 65.7255 39.1692 70.6265 32.0202 70.6265C24.8702 70.6265 18.8562 65.7255 17.1582 59.1035H46.8812Z" fill="#90BCFF"/>
<path d="M29.901 66.9289C38.3738 66.9289 45.2424 60.0603 45.2424 51.5875C45.2424 43.1147 38.3738 36.2461 29.901 36.2461C21.4282 36.2461 14.5596 43.1147 14.5596 51.5875C14.5596 60.0603 21.4282 66.9289 29.901 66.9289Z" fill="#004DBF"/>
<path d="M32.2404 49.4432C31.7303 48.5429 30.95 48.0927 29.8996 48.0927C28.8493 48.0927 28.069 48.5429 27.5589 49.4432C27.0487 50.3435 26.7936 51.889 26.7936 54.0797C26.7936 56.2704 27.0487 57.8159 27.5589 58.7162C28.069 59.6165 28.8493 60.0667 29.8996 60.0667C30.95 60.0667 31.7303 59.6165 32.2404 58.7162C32.7506 57.8159 33.0057 56.2704 33.0057 54.0797C33.0057 51.889 32.7506 50.3435 32.2404 49.4432ZM34.6262 60.5168C33.5909 61.8523 32.0153 62.52 29.8996 62.52C27.7839 62.52 26.2009 61.8523 25.1506 60.5168C24.1152 59.1814 23.5976 57.0357 23.5976 54.0797C23.5976 51.1237 24.1152 48.978 25.1506 47.6426C26.2009 46.3071 27.7839 45.6394 29.8996 45.6394C32.0153 45.6394 33.5909 46.3071 34.6262 47.6426C35.6766 48.978 36.2017 51.1237 36.2017 54.0797C36.2017 57.0357 35.6766 59.1814 34.6262 60.5168Z" fill="white"/>
</g>
</g>
<defs>
<clipPath id="clip0_7001_24765">
<rect width="150" height="150" fill="white" transform="translate(0.5)"/>
</clipPath>
</defs>
</svg>
