<svg width="195" height="194" viewBox="0 0 195 194" fill="none" xmlns="http://www.w3.org/2000/svg">
<path d="M108.647 184.999C156.339 184.999 195 146.413 195 98.8132C195 51.2138 156.339 12.627 108.647 12.627C60.9555 12.627 22.2939 51.2138 22.2939 98.8132C22.2939 146.413 60.9555 184.999 108.647 184.999Z" fill="#D7E7FF"/>
<path d="M101.125 147.166C101.125 153.17 96.2122 158.083 90.208 158.083C84.2038 158.083 79.2913 153.17 79.2913 147.166C79.2913 141.162 84.2038 136.249 90.208 136.249C96.2122 136.249 101.125 141.162 101.125 147.166ZM144.791 136.249C138.787 136.249 133.875 141.162 133.875 147.166C133.875 153.17 138.787 158.083 144.791 158.083C150.796 158.083 155.708 153.17 155.708 147.166C155.708 141.162 150.796 136.249 144.791 136.249ZM91.2997 118.783V118.237L96.2122 108.958H136.604C140.425 108.958 144.246 106.774 145.883 103.499L167.171 65.291L157.891 59.8327L136.604 98.041H98.3955L75.4705 48.916H57.458V59.8327H68.3747L88.0247 101.316L80.383 114.416C79.8372 116.054 79.2913 117.691 79.2913 119.874C79.2913 125.879 84.2038 130.791 90.208 130.791H155.708V119.874H92.3913C91.8455 119.874 91.2997 119.329 91.2997 118.783ZM117.5 88.7618L114.225 86.0327C103.308 75.6618 95.6663 69.1118 95.6663 60.9243C95.6663 54.3743 101.125 48.916 107.675 48.916C111.496 48.916 115.316 50.5535 117.5 53.2827C119.683 50.5535 123.504 48.916 127.325 48.916C133.875 48.916 139.333 53.8285 139.333 60.9243C139.333 69.1118 131.691 75.6618 120.775 86.0327L117.5 88.7618Z" fill="#4992FF"/>
<path d="M100.667 147.166C100.667 153.17 95.7542 158.083 89.75 158.083C83.7458 158.083 78.8333 153.17 78.8333 147.166C78.8333 141.162 83.7458 136.249 89.75 136.249C95.7542 136.249 100.667 141.162 100.667 147.166ZM144.333 136.249C138.329 136.249 133.417 141.162 133.417 147.166C133.417 153.17 138.329 158.083 144.333 158.083C150.338 158.083 155.25 153.17 155.25 147.166C155.25 141.162 150.338 136.249 144.333 136.249ZM90.8417 118.783V118.237L95.7542 108.958H136.146C139.967 108.958 143.788 106.774 145.425 103.499L166.713 65.291L157.433 59.8327L136.146 98.041H97.9375L75.0125 48.916H57V59.8327H67.9167L87.5667 101.316L79.925 114.416C79.3792 116.054 78.8333 117.691 78.8333 119.874C78.8333 125.879 83.7458 130.791 89.75 130.791H155.25V119.874H91.9333C91.3875 119.874 90.8417 119.329 90.8417 118.783Z" fill="#71AAFF"/>
<circle cx="89.5" cy="147.5" r="11.5" fill="#4992FF"/>
<circle cx="144.5" cy="147.5" r="11.5" fill="#4992FF"/>
<path d="M51.4906 78.7488C65.737 78.7488 77.286 67.2221 77.286 53.0033C77.286 38.7845 65.737 27.2578 51.4906 27.2578C37.2443 27.2578 25.6953 38.7845 25.6953 53.0033C25.6953 67.2221 37.2443 78.7488 51.4906 78.7488Z" fill="#FFAD4F"/>
<path d="M57.8397 55.0357C57.8397 52.3215 57.4259 50.2563 56.6573 48.7812C55.8888 47.3062 54.7656 46.5391 53.2877 46.5391C51.8689 46.5391 50.7457 47.2472 49.9772 48.7812C49.2087 50.2563 48.8539 52.3215 48.8539 55.0357C48.8539 57.7498 49.2087 59.8149 49.9772 61.349C50.7457 62.8241 51.8097 63.5911 53.2877 63.5911C54.7065 63.5911 55.8297 62.8241 56.6573 61.349C57.4259 59.8149 57.8397 57.7498 57.8397 55.0357ZM65.7024 55.0357C65.7024 57.3958 65.4069 59.5199 64.7566 61.349C64.1654 63.1781 63.2786 64.7121 62.2145 66.0102C61.0912 67.2492 59.7906 68.1933 58.3127 68.8424C56.7756 69.4914 55.1204 69.7865 53.3469 69.7865C51.5142 69.7865 49.8589 69.4914 48.3219 68.8424C46.7848 68.1933 45.4842 67.2492 44.4201 66.0102C43.3559 64.7711 42.4691 63.2371 41.878 61.349C41.2868 59.5199 40.9912 57.3958 40.9912 55.0357C40.9912 52.6755 41.2868 50.5514 41.878 48.7223C42.4691 46.8932 43.3559 45.3591 44.4201 44.12C45.5433 42.881 46.8439 41.9369 48.3219 41.2879C49.8589 40.6388 51.5142 40.3438 53.3469 40.3438C55.1204 40.3438 56.7756 40.6978 58.3127 41.2879C59.8497 41.9369 61.1504 42.881 62.2145 44.12C63.2786 45.3591 64.1654 46.8932 64.7566 48.7223C65.4069 50.5514 65.7024 52.6755 65.7024 55.0357Z" fill="#D1293D"/>
<path d="M56.2918 52.3462C56.2918 49.632 55.878 47.5669 55.1095 46.0918C54.341 44.6167 53.2178 43.8496 51.7398 43.8496C50.321 43.8496 49.1979 44.5577 48.4293 46.0918C47.6608 47.5669 47.306 49.632 47.306 52.3462C47.306 55.0603 47.6608 57.1254 48.4293 58.6595C49.1979 60.1346 50.2619 60.9017 51.7398 60.9017C53.1586 60.9017 54.2819 60.1346 55.1095 58.6595C55.878 57.1254 56.2918 55.0603 56.2918 52.3462ZM64.1545 52.3462C64.1545 54.7063 63.859 56.8304 63.2087 58.6595C62.6175 60.4886 61.7307 62.0226 60.6666 63.3207C59.5434 64.5598 58.2428 65.5039 56.7648 66.1529C55.2278 66.8019 53.5725 67.097 51.799 67.097C49.9664 67.097 48.3111 66.8019 46.774 66.1529C45.237 65.5039 43.9363 64.5598 42.8722 63.3207C41.8081 62.0816 40.9213 60.5476 40.3301 58.6595C39.7389 56.8304 39.4434 54.7063 39.4434 52.3462C39.4434 49.9861 39.7389 47.862 40.3301 46.0329C40.9213 44.2038 41.8081 42.6697 42.8722 41.4306C43.9954 40.1915 45.2961 39.2474 46.774 38.5984C48.3111 37.9494 49.9664 37.6543 51.799 37.6543C53.5725 37.6543 55.2278 38.0084 56.7648 38.5984C58.3019 39.2474 59.6025 40.1915 60.6666 41.4306C61.7307 42.6697 62.6175 44.2038 63.2087 46.0329C63.859 47.862 64.1545 49.9861 64.1545 52.3462Z" fill="white"/>
<path d="M16.0333 39.09C15.9567 39.09 15.8647 39.0747 15.788 39.0594L0.811706 35.4335C0.244536 35.2958 -0.108043 34.7297 0.0299169 34.1636C0.167877 33.5976 0.735054 33.2457 1.30222 33.3834L16.2786 37.0093C16.8457 37.147 17.1983 37.7131 17.0603 38.2791C16.9377 38.7687 16.5085 39.09 16.0333 39.09Z" fill="#FFAD4F"/>
<path d="M32.7433 21.9644C32.3141 21.9644 31.9155 21.7044 31.7622 21.2913L27.2096 9.43434C26.995 8.88356 27.2709 8.28689 27.8227 8.0727C28.3746 7.85851 28.9724 8.1339 29.187 8.68467L33.7396 20.5416C33.9543 21.0924 33.6783 21.6891 33.1265 21.9032C33.0039 21.9338 32.8659 21.9644 32.7433 21.9644Z" fill="#FFAD4F"/>
<path d="M21.1445 29.0518C20.8686 29.0518 20.6079 28.9447 20.3933 28.7458L6.18346 14.5634C5.76958 14.1503 5.76958 13.4771 6.18346 13.0793C6.59734 12.6663 7.2718 12.6663 7.67035 13.0793L21.8803 27.2618C22.2942 27.6749 22.2942 28.348 21.8803 28.7458C21.681 28.9447 21.4204 29.0518 21.1445 29.0518Z" fill="#FFAD4F"/>
</svg>
