<svg width="150" height="150" viewBox="0 0 150 150" fill="none" xmlns="http://www.w3.org/2000/svg">
<g clip-path="url(#clip0_7001_24612)">
<path d="M74.8682 142.65C112.23 142.65 142.518 112.363 142.518 75.001C142.518 37.6393 112.23 7.35156 74.8682 7.35156C37.5064 7.35156 7.21875 37.6393 7.21875 75.001C7.21875 112.363 37.5064 142.65 74.8682 142.65Z" fill="#F7F7F8"/>
<path d="M81.4417 142.649C116.668 142.649 145.224 114.093 145.224 78.8666C145.224 43.6404 116.668 15.084 81.4417 15.084C46.2156 15.084 17.6592 43.6404 17.6592 78.8666C17.6592 114.093 46.2156 142.649 81.4417 142.649Z" stroke="#71AAFF" stroke-width="0.400351" stroke-miterlimit="3" stroke-linecap="round"/>
<path d="M122.969 33.2568C125.361 32.939 127.568 34.5895 127.941 36.9736C129.8 48.8507 134.968 81.8745 136.906 94.2607C137.085 95.405 136.81 96.5711 136.146 97.5117L136.007 97.6963C135.242 98.6666 134.108 99.2742 132.876 99.374C122.632 100.204 97.7941 102.217 75.5176 104.021C64.3794 104.924 53.8814 105.774 46.168 106.399C42.3113 106.712 39.1505 106.969 36.9541 107.146C35.8559 107.235 34.9986 107.304 34.416 107.352C34.1248 107.375 33.9018 107.393 33.752 107.405C33.6774 107.411 33.6209 107.417 33.583 107.42C33.5779 107.42 33.5728 107.42 33.5684 107.42C33.5665 107.4 33.5646 107.372 33.5615 107.339C33.5539 107.256 33.5422 107.134 33.5273 106.974C33.4976 106.653 33.4546 106.181 33.3984 105.575C33.2861 104.363 33.1232 102.615 32.9248 100.475C32.5279 96.1935 31.9855 90.3396 31.4023 84.0488C30.236 71.4675 28.9079 57.1385 28.2598 50.1475C28.04 47.7732 29.7339 45.6483 32.0977 45.334C48.3951 43.168 106.549 35.4391 122.969 33.2568Z" fill="#4992FF" stroke="#1271FF" stroke-width="0.088424"/>
<path d="M131.835 99.458L116.712 100.683L123.885 53.3467L131.835 99.458Z" fill="#002C6D" stroke="#002C6D" stroke-width="0.088424"/>
<path fill-rule="evenodd" clip-rule="evenodd" d="M123.923 54.0119C123.799 50.7517 121.055 48.2097 117.794 48.3343C99.4384 49.0359 43.4954 51.1743 25.1396 51.8759C21.8792 52.0005 19.3374 54.7446 19.462 58.0049L21.6026 114.006C21.7272 117.267 24.471 119.808 27.7315 119.684L120.386 116.142C123.647 116.018 126.188 113.274 126.064 110.013C125.573 97.177 124.414 66.8486 123.923 54.0119Z" fill="#90BCFF"/>
<path d="M99.8496 70.631C104.128 70.4675 107.463 66.867 107.299 62.5892C107.136 58.3113 103.535 54.976 99.2575 55.1395C94.9796 55.303 91.6443 58.9034 91.8078 63.1813C91.9713 67.4592 95.5718 70.7945 99.8496 70.631Z" fill="#FFAD4F"/>
<path d="M109.201 70.2736C113.479 70.1101 116.814 66.5096 116.651 62.2317C116.487 57.9539 112.887 54.6185 108.609 54.7821C104.331 54.9456 100.996 58.546 101.159 62.8239C101.323 67.1018 104.923 70.4371 109.201 70.2736Z" fill="#D7E7FF"/>
<path fill-rule="evenodd" clip-rule="evenodd" d="M103.993 56.5331C105.912 57.8769 107.203 60.0704 107.299 62.5892C107.395 65.108 106.276 67.3937 104.465 68.8801C102.547 67.5362 101.256 65.3427 101.16 62.8239C101.064 60.305 102.183 58.0194 103.993 56.5331Z" fill="#F26922"/>
<path fill-rule="evenodd" clip-rule="evenodd" d="M71.7622 102.537C71.7307 101.711 71.0362 101.067 70.21 101.098C63.6891 101.348 37.7777 102.338 31.2568 102.587C30.4306 102.619 29.7873 103.314 29.8189 104.14L29.8189 104.14C29.8505 104.966 30.5449 105.61 31.3711 105.579C37.892 105.329 63.8034 104.339 70.3244 104.09C71.1505 104.058 71.7938 103.363 71.7622 102.537L71.7622 102.537Z" fill="white"/>
<path fill-rule="evenodd" clip-rule="evenodd" d="M35.127 90.3343C35.09 89.3645 34.2737 88.6083 33.3038 88.6454C32.6331 88.6711 31.8194 88.7022 31.1487 88.7278C30.1788 88.7649 29.4226 89.5811 29.4597 90.5509C29.4943 91.4562 29.5401 92.6545 29.5747 93.5597C29.6118 94.5296 30.4281 95.2856 31.3979 95.2485L33.5531 95.1661C34.5229 95.129 35.2791 94.313 35.242 93.3431C35.2074 92.4379 35.1616 91.2396 35.127 90.3343ZM34.2433 90.3681C34.2779 91.2733 34.3237 92.4717 34.3583 93.3769C34.3768 93.8588 34.0011 94.2651 33.5193 94.2835C33.5192 94.2835 31.3642 94.3659 31.3642 94.3659C30.8823 94.3843 30.4767 94.0079 30.4583 93.526C30.4237 92.6207 30.3779 91.4224 30.3433 90.5172C30.3249 90.0352 30.7005 89.6298 31.1824 89.6114L33.3376 89.529C33.8194 89.5106 34.2249 89.8862 34.2433 90.3681Z" fill="white"/>
<path fill-rule="evenodd" clip-rule="evenodd" d="M43.5635 90.0121C43.5265 89.0422 42.7102 88.2861 41.7403 88.3232C41.0696 88.3488 40.2559 88.3799 39.5852 88.4055C38.6153 88.4426 37.8592 89.2588 37.8962 90.2287C37.9308 91.1339 37.9766 92.3322 38.0112 93.2375C38.0483 94.2073 38.8646 94.9633 39.8344 94.9262L41.9896 94.8438C42.9594 94.8068 43.7156 93.9907 43.6786 93.0209C43.644 92.1156 43.5982 90.9173 43.5635 90.0121ZM42.6799 90.0458C42.7145 90.9511 42.7603 92.1494 42.7949 93.0546C42.8133 93.5366 42.4377 93.9428 41.9559 93.9612C41.9558 93.9613 39.8007 94.0436 39.8007 94.0436C39.3188 94.062 38.9132 93.6856 38.8948 93.2037C38.8602 92.2985 38.8144 91.1001 38.7798 90.1949C38.7614 89.713 39.1371 89.3075 39.619 89.2891L41.7741 89.2067C42.2559 89.1883 42.6614 89.5639 42.6799 90.0458Z" fill="white"/>
<path fill-rule="evenodd" clip-rule="evenodd" d="M52.0001 89.6898C51.963 88.7199 51.1467 87.9638 50.1769 88.0009C49.5061 88.0265 48.6925 88.0576 48.0217 88.0833C47.0519 88.1203 46.2957 88.9366 46.3327 89.9064C46.3673 90.8117 46.4132 92.01 46.4478 92.9152C46.4848 93.8851 47.3011 94.641 48.271 94.6039L50.4261 94.5216C51.396 94.4845 52.1522 93.6684 52.1151 92.6986C52.0805 91.7933 52.0347 90.595 52.0001 89.6898ZM51.1164 89.7236C51.151 90.6288 51.1968 91.8271 51.2314 92.7324C51.2498 93.2143 50.8742 93.6206 50.3924 93.639C50.3923 93.639 48.2372 93.7214 48.2372 93.7214C47.7553 93.7398 47.3498 93.3634 47.3313 92.8814C47.2967 91.9762 47.2509 90.7779 47.2163 89.8726C47.1979 89.3907 47.5736 88.9853 48.0555 88.9669L50.2106 88.8845C50.6924 88.8661 51.098 89.2416 51.1164 89.7236Z" fill="white"/>
<path fill-rule="evenodd" clip-rule="evenodd" d="M60.4385 89.3675C60.4015 88.3977 59.5852 87.6416 58.6153 87.6786C57.9446 87.7043 57.1309 87.7354 56.4602 87.761C55.4903 87.7981 54.7342 88.6143 54.7712 89.5841C54.8058 90.4894 54.8516 91.6877 54.8862 92.5929C54.9233 93.5628 55.7396 94.3188 56.7094 94.2817C57.3802 94.256 58.1938 94.2249 58.8646 94.1993C59.8344 94.1622 60.5906 93.3462 60.5536 92.3763C60.519 91.4711 60.4732 90.2728 60.4385 89.3675ZM59.5549 89.4013C59.5895 90.3065 59.6353 91.5049 59.6699 92.4101C59.6883 92.892 59.3127 93.2983 58.8309 93.3167C58.8308 93.3167 56.6757 93.3991 56.6757 93.3991C56.1938 93.4175 55.7882 93.0411 55.7698 92.5592C55.7352 91.6539 55.6894 90.4556 55.6548 89.5504C55.6364 89.0684 56.0121 88.663 56.494 88.6446L58.6491 88.5622C59.1309 88.5438 59.5364 88.9194 59.5549 89.4013Z" fill="white"/>
<path fill-rule="evenodd" clip-rule="evenodd" d="M68.8751 89.0453C68.838 88.0754 68.0217 87.3193 67.0519 87.3564C66.3811 87.382 65.5675 87.4131 64.8967 87.4387C63.9269 87.4758 63.1707 88.292 63.2077 89.2619C63.2423 90.1671 63.2882 91.3654 63.3228 92.2707C63.3598 93.2405 64.1761 93.9965 65.146 93.9594L67.3011 93.877C68.271 93.84 69.0272 93.0239 68.9901 92.0541C68.9555 91.1488 68.9097 89.9505 68.8751 89.0453ZM67.9914 89.079C68.026 89.9843 68.0718 91.1826 68.1064 92.0878C68.1248 92.5698 67.7492 92.976 67.2674 92.9944C67.2673 92.9945 65.1122 93.0768 65.1122 93.0768C64.6303 93.0952 64.2248 92.7188 64.2063 92.2369C64.1717 91.3317 64.1259 90.1333 64.0913 89.2281C64.0729 88.7462 64.4486 88.3407 64.9305 88.3223L67.0856 88.2399C67.5674 88.2215 67.973 88.5971 67.9914 89.079Z" fill="white"/>
<path fill-rule="evenodd" clip-rule="evenodd" d="M45.5505 109.78C45.5353 109.384 45.3635 109.009 45.0721 108.74C44.781 108.47 44.3945 108.327 43.998 108.342C41.0367 108.455 34.4586 108.707 31.4973 108.82C31.1008 108.835 30.7263 109.007 30.4566 109.298C30.1867 109.589 30.044 109.976 30.0591 110.372L30.0591 110.373C30.0743 110.769 30.2461 111.144 30.5375 111.413C30.8286 111.684 31.2151 111.826 31.6116 111.811L44.1123 111.333C44.5088 111.318 44.8834 111.146 45.1529 110.855C45.4229 110.564 45.5656 110.177 45.5505 109.78L45.5505 109.78Z" fill="white"/>
<path fill-rule="evenodd" clip-rule="evenodd" d="M28.4017 40.0605L23.3649 26.23C23.0309 25.3129 22.0152 24.8395 21.098 25.1735C20.1809 25.5075 19.7075 26.5233 20.0415 27.4404L25.0783 41.2708C25.4122 42.1879 26.428 42.6614 27.3451 42.3274C28.2623 41.9934 28.7357 40.9776 28.4017 40.0605Z" fill="#FFAD4F"/>
<path fill-rule="evenodd" clip-rule="evenodd" d="M19.5256 47.4693L14.5196 41.46C13.8949 40.7101 12.7789 40.6084 12.0289 41.2331C11.279 41.8579 11.1774 42.9739 11.8021 43.7238L16.808 49.7331C17.4327 50.483 18.5488 50.5847 19.2987 49.96C20.0486 49.3353 20.1503 48.2192 19.5256 47.4693Z" fill="#FFAD4F"/>
<path fill-rule="evenodd" clip-rule="evenodd" d="M40.4574 39.0463L40.4266 31.2252C40.4227 30.2491 39.6272 29.4598 38.6512 29.4637C37.6751 29.4675 36.8858 30.2631 36.8896 31.2391L36.9205 39.0602C36.9243 40.0363 37.7199 40.8256 38.6959 40.8217C39.6719 40.8179 40.4613 40.0223 40.4574 39.0463Z" fill="#FFAD4F"/>
</g>
<defs>
<clipPath id="clip0_7001_24612">
<rect width="150" height="150" fill="white"/>
</clipPath>
</defs>
</svg>
