<svg width="81" height="81" viewBox="0 0 81 81" fill="none" xmlns="http://www.w3.org/2000/svg">
<path d="M30.5002 23.8332C30.5002 18.1665 34.8335 13.8332 40.5002 13.8332C46.1668 13.8332 50.5002 18.1665 50.5002 23.8332V30.4998H57.1668V23.8332C57.1668 14.4998 49.8335 7.1665 40.5002 7.1665C31.1668 7.1665 23.8335 14.4998 23.8335 23.8332V30.4998H30.5002V23.8332ZM45.5002 48.8332C45.5002 46.1665 43.1668 43.8332 40.5002 43.8332C37.8335 43.8332 35.5002 46.1665 35.5002 48.8332C35.5002 50.1665 36.1668 51.4998 37.1668 52.4998V57.1665C37.1668 59.1665 38.5002 60.4998 40.5002 60.4998C42.5002 60.4998 43.8335 59.1665 43.8335 57.1665V52.4998C44.8335 51.4998 45.5002 50.1665 45.5002 48.8332Z" fill="#FCA5A5"/>
<path d="M57.1668 30.5H23.8335C18.1668 30.5 13.8335 34.8333 13.8335 40.5V63.8333C13.8335 69.5 18.1668 73.8333 23.8335 73.8333H57.1668C62.8335 73.8333 67.1668 69.5 67.1668 63.8333V40.5C67.1668 34.8333 62.8335 30.5 57.1668 30.5ZM43.8335 52.5V57.1667C43.8335 59.1667 42.5002 60.5 40.5002 60.5C38.5002 60.5 37.1668 59.1667 37.1668 57.1667V52.5C36.1668 51.5 35.5002 50.1667 35.5002 48.8333C35.5002 46.1667 37.8335 43.8333 40.5002 43.8333C43.1668 43.8333 45.5002 46.1667 45.5002 48.8333C45.5002 50.1667 44.8335 51.5 43.8335 52.5Z" fill="#DC2626"/>
</svg>
