<svg width="200" height="200" viewBox="0 0 200 200" fill="none" xmlns="http://www.w3.org/2000/svg">
<path d="M164.012 31.5039H64.3125C61.0118 31.5039 57.8463 32.8151 55.5123 35.1491C53.1784 37.483 51.8672 40.6485 51.8672 43.9492V109.645C51.8672 112.945 53.1784 116.111 55.5123 118.445C57.8463 120.779 61.0118 122.09 64.3125 122.09H133.414L144.301 137.281L155.188 122.09H164.012C165.646 122.09 167.265 121.769 168.775 121.144C170.285 120.518 171.657 119.602 172.813 118.446C173.969 117.29 174.885 115.918 175.511 114.408C176.136 112.898 176.458 111.279 176.457 109.645V43.9492C176.458 42.3147 176.136 40.6962 175.511 39.186C174.885 37.6758 173.969 36.3037 172.813 35.1479C171.657 33.9922 170.285 33.0755 168.775 32.4502C167.265 31.825 165.646 31.5034 164.012 31.5039Z" fill="#CFD3D7"/>
<path d="M176.457 43.9492V109.645C176.457 112.946 175.146 116.112 172.812 118.446C170.478 120.781 167.313 122.093 164.012 122.094H155.191L144.301 137.281L133.414 122.094H64.3164C61.0147 122.094 57.8482 120.782 55.5135 118.447C53.1788 116.113 51.8672 112.946 51.8672 109.645V43.9492C51.8672 40.6475 53.1788 37.481 55.5135 35.1463C57.8482 32.8116 61.0147 31.5 64.3164 31.5H164.012C167.313 31.501 170.478 32.8131 172.812 35.1477C175.146 37.4822 176.457 40.6482 176.457 43.9492Z" fill="#CFD3D7"/>
<path d="M154.094 51.3633H90.5391V59.5586H154.094V51.3633Z" fill="#CFD3D7"/>
<path d="M154.09 73.3555H75.6914V81.5508H154.09V73.3555Z" fill="#CFD3D7"/>
<path d="M154.09 95.3438H133.652V103.539H154.09V95.3438Z" fill="#CFD3D7"/>
<path style="mix-blend-mode:multiply" d="M125.996 107.691V122.094H64.3164C61.0147 122.094 57.8482 120.782 55.5135 118.447C53.1788 116.113 51.8672 112.946 51.8672 109.645V88.7578H107.055C112.075 88.763 116.889 90.7592 120.44 94.3086C123.991 97.858 125.989 102.671 125.996 107.691Z" fill="url(#paint0_linear_7001_25263)"/>
<path style="mix-blend-mode:multiply" d="M51.8672 72.6953V43.9492C51.8672 40.6475 53.1788 37.481 55.5135 35.1463C57.8482 32.8116 61.0147 31.5 64.3164 31.5H80.8594C88.8398 51.4336 73.707 73.4375 51.8672 72.6953Z" fill="url(#paint1_linear_7001_25263)"/>
<path d="M144.301 139.297L132.812 123.262H64.3125C60.7023 123.258 57.2411 121.822 54.6883 119.269C52.1354 116.716 50.6994 113.255 50.6953 109.645V43.9453C50.6994 40.3354 52.1356 36.8747 54.6885 34.3225C57.2414 31.7703 60.7026 30.3351 64.3125 30.332H164.012C167.622 30.3351 171.083 31.7703 173.636 34.3225C176.189 36.8747 177.625 40.3354 177.629 43.9453V109.645C177.625 113.255 176.189 116.716 173.636 119.269C171.083 121.822 167.622 123.258 164.012 123.262H155.789L144.301 139.297ZM64.3125 32.6562C61.3242 32.6593 58.4592 33.8475 56.3458 35.9602C54.2324 38.0729 53.0432 40.9375 53.0391 43.9258V109.645C53.0422 112.633 54.2309 115.499 56.3444 117.613C58.4579 119.726 61.3236 120.915 64.3125 120.918H134.016L144.301 135.27L154.586 120.918H164.012C167.001 120.915 169.866 119.726 171.98 117.613C174.093 115.499 175.282 112.633 175.285 109.645V43.9453C175.281 40.957 174.092 38.0924 171.978 35.9797C169.865 33.8671 167 32.6789 164.012 32.6758L64.3125 32.6562Z" fill="#454B53"/>
<path d="M52.9219 66.2227C65.9459 66.2227 76.5039 55.6646 76.5039 42.6406C76.5039 29.6166 65.9459 19.0586 52.9219 19.0586C39.8979 19.0586 29.3398 29.6166 29.3398 42.6406C29.3398 55.6646 39.8979 66.2227 52.9219 66.2227Z" fill="#CFD3D7"/>
<path d="M52.9219 67.3906C48.0259 67.3906 43.2398 65.9387 39.1689 63.2186C35.0981 60.4984 31.9253 56.6322 30.0519 52.1087C28.1784 47.5853 27.6885 42.6079 28.6439 37.806C29.5994 33.0042 31.9573 28.5934 35.4196 25.1317C38.8819 21.67 43.293 19.3127 48.095 18.358C52.8971 17.4033 57.8744 17.8941 62.3975 19.7682C66.9206 21.6424 70.7864 24.8158 73.5059 28.887C76.2254 32.9583 77.6766 37.7446 77.6758 42.6406C77.6789 45.892 77.0407 49.1121 75.7977 52.1166C74.5548 55.1211 72.7315 57.8509 70.4322 60.1498C68.1329 62.4487 65.4028 64.2716 62.3981 65.5141C59.3935 66.7565 56.1733 67.3942 52.9219 67.3906ZM52.9219 20.2305C47.4581 20.2307 42.1826 22.2267 38.087 25.8431C33.9914 29.4596 31.3578 34.4475 30.6813 39.8693C30.0048 45.291 31.3319 50.7731 34.4132 55.2851C37.4946 59.7971 42.1179 63.0283 47.4141 64.3711C61.7188 67.9688 75.332 57.0703 75.332 42.6406C75.3258 36.699 72.9628 31.0025 68.7614 26.8011C64.56 22.5997 58.8635 20.2367 52.9219 20.2305Z" fill="#454B53"/>
<path d="M55.3594 47.8985H50.4844C50.4848 46.2489 50.877 44.623 51.6288 43.1547C52.3806 41.6865 53.4705 40.4178 54.8086 39.4532C55.2596 39.1299 55.6199 38.6961 55.8551 38.1935C56.0902 37.6908 56.1922 37.1362 56.1514 36.5828C56.1105 36.0294 55.9281 35.4958 55.6217 35.0332C55.3153 34.5706 54.8952 34.1944 54.4016 33.9409C53.908 33.6873 53.3576 33.5648 52.803 33.5852C52.2485 33.6055 51.7085 33.7681 51.2349 34.0571C50.7612 34.3462 50.3698 34.7522 50.0982 35.236C49.8265 35.7199 49.6838 36.2654 49.6836 36.8203H44.8125C44.8129 35.4312 45.17 34.0655 45.8498 32.8541C46.5295 31.6427 47.5091 30.6262 48.6945 29.902C49.88 29.1779 51.2315 28.7704 52.6197 28.7186C54.0078 28.6669 55.386 28.9726 56.6221 29.6064C57.8581 30.2402 58.9107 31.1809 59.6788 32.3384C60.4469 33.4958 60.9048 34.8311 61.0086 36.2164C61.1124 37.6016 60.8586 38.9902 60.2716 40.2492C59.6846 41.5082 58.784 42.5953 57.6563 43.4063C56.9451 43.9197 56.366 44.5947 55.9667 45.3757C55.5673 46.1567 55.3592 47.0213 55.3594 47.8985Z" fill="#4992FF"/>
<path d="M55.3242 51.668H50.4336V56.5586H55.3242V51.668Z" fill="#4992FF"/>
<path d="M107.055 95.25H35.0469C31.7469 95.25 28.5819 96.5607 26.2481 98.8938C23.9143 101.227 22.6026 104.391 22.6016 107.691V156.68C22.5995 158.315 22.9199 159.935 23.5444 161.447C24.1689 162.959 25.0853 164.333 26.2412 165.49C27.397 166.647 28.7697 167.565 30.2807 168.192C31.7916 168.818 33.4112 169.141 35.0469 169.141H39.1445L47.6094 180.957L56.0781 169.141H107.055C110.355 169.141 113.521 167.829 115.855 165.495C118.189 163.162 119.5 159.996 119.5 156.695V107.691C119.499 104.391 118.187 101.227 115.853 98.8938C113.52 96.5607 110.355 95.25 107.055 95.25Z" fill="#B4B9C0"/>
<path d="M47.6094 182.953L38.543 170.312H35.0273C31.4178 170.303 27.9593 168.863 25.4102 166.307C22.8612 163.751 21.4297 160.289 21.4297 156.68V107.691C21.4338 104.082 22.8699 100.621 25.4229 98.0686C27.9758 95.5164 31.437 94.0812 35.0469 94.0781H107.055C110.665 94.0812 114.126 95.5164 116.679 98.0686C119.232 100.621 120.668 104.082 120.672 107.691V156.68C120.672 160.293 119.238 163.758 116.684 166.314C114.131 168.87 110.668 170.308 107.055 170.312H56.6641L47.6094 182.953ZM35.0469 96.4219C32.0586 96.425 29.1936 97.6132 27.0802 99.7258C24.9668 101.838 23.7776 104.703 23.7734 107.691V156.68C23.7724 159.671 24.9593 162.541 27.0733 164.658C29.1872 166.775 32.0552 167.966 35.0469 167.969H39.7344L47.5977 178.945L55.4688 167.969H107.031C110.02 167.966 112.886 166.777 114.999 164.663C117.113 162.55 118.302 159.684 118.305 156.695V107.691C118.301 104.703 117.111 101.838 114.998 99.7258C112.885 97.6132 110.02 96.425 107.031 96.4219H35.0469Z" fill="#454B53"/>
<path d="M47.4453 138.035C50.4462 138.035 52.8789 135.602 52.8789 132.602C52.8789 129.601 50.4462 127.168 47.4453 127.168C44.4444 127.168 42.0117 129.601 42.0117 132.602C42.0117 135.602 44.4444 138.035 47.4453 138.035Z" fill="#CFD3D7"/>
<path d="M71.0508 138.035C74.0517 138.035 76.4844 135.602 76.4844 132.602C76.4844 129.601 74.0517 127.168 71.0508 127.168C68.0499 127.168 65.6172 129.601 65.6172 132.602C65.6172 135.602 68.0499 138.035 71.0508 138.035Z" fill="#CFD3D7"/>
<path d="M94.6563 138.035C97.6571 138.035 100.09 135.602 100.09 132.602C100.09 129.601 97.6571 127.168 94.6563 127.168C91.6554 127.168 89.2227 129.601 89.2227 132.602C89.2227 135.602 91.6554 138.035 94.6563 138.035Z" fill="#CFD3D7"/>
<path d="M137.203 160.995C136.76 160.413 136.468 159.73 136.352 159.008C136.237 158.286 136.301 157.546 136.54 156.854C136.778 156.163 137.184 155.541 137.721 155.044C138.257 154.546 138.909 154.189 139.616 154.004C140.324 153.819 141.067 153.811 141.778 153.982C142.489 154.152 143.148 154.496 143.695 154.982C144.242 155.468 144.66 156.081 144.913 156.768C145.166 157.454 145.245 158.193 145.145 158.917C145.02 159.785 144.643 160.596 144.059 161.25C143.475 161.904 142.712 162.371 141.864 162.593C141.016 162.815 140.122 162.782 139.292 162.498C138.463 162.213 137.737 161.691 137.203 160.995ZM140.742 156.21C140.34 156.21 139.946 156.326 139.607 156.544C139.269 156.762 139 157.073 138.833 157.439C138.667 157.805 138.609 158.212 138.667 158.61C138.725 159.009 138.896 159.382 139.161 159.685C139.425 159.989 139.771 160.21 140.158 160.322C140.544 160.435 140.955 160.433 141.341 160.318C141.727 160.204 142.071 159.98 142.334 159.675C142.596 159.37 142.765 158.996 142.82 158.597C142.861 158.3 142.838 157.998 142.752 157.711C142.666 157.423 142.52 157.158 142.323 156.932C142.126 156.706 141.883 156.524 141.611 156.4C141.338 156.275 141.042 156.211 140.742 156.21ZM126.41 177.284C125.938 177.284 125.472 177.186 125.039 176.997C124.607 176.809 124.218 176.534 123.896 176.189C123.574 175.844 123.327 175.436 123.169 174.992C123.011 174.547 122.947 174.075 122.979 173.604C123.011 173.134 123.139 172.675 123.356 172.256C123.573 171.837 123.874 171.467 124.239 171.169C124.605 170.871 125.028 170.651 125.482 170.523C125.936 170.395 126.411 170.362 126.879 170.425C127.745 170.543 128.534 170.985 129.087 171.662C129.639 172.34 129.913 173.202 129.853 174.074C129.794 174.946 129.405 175.763 128.766 176.359C128.126 176.955 127.284 177.286 126.41 177.284ZM126.41 172.738C126.199 172.737 125.991 172.798 125.813 172.912C125.635 173.027 125.494 173.19 125.406 173.382C125.318 173.575 125.288 173.789 125.318 173.998C125.349 174.207 125.439 174.404 125.578 174.563C125.717 174.723 125.899 174.839 126.103 174.897C126.306 174.956 126.522 174.955 126.725 174.894C126.927 174.834 127.108 174.716 127.246 174.555C127.383 174.394 127.472 174.197 127.5 173.988C127.521 173.832 127.509 173.673 127.464 173.522C127.418 173.371 127.341 173.232 127.238 173.114C127.134 172.995 127.006 172.9 126.863 172.836C126.719 172.771 126.564 172.737 126.406 172.738H126.41Z" fill="#454B53"/>
<path d="M15.2344 122.418H12.8906V120.074H15.2344V122.418ZM15.2344 116.168H12.8906V113.824H15.2344V116.168ZM15.2344 109.918H12.8906V107.574H15.2344V109.918ZM15.5937 103.906L13.2812 103.473C13.4374 102.662 13.6396 101.862 13.8867 101.074L16.1211 101.773C15.9064 102.474 15.7304 103.186 15.5937 103.906ZM17.5469 98.375L15.4961 97.2656C15.888 96.5401 16.3183 95.836 16.7852 95.1563L18.7148 96.4844C18.3007 97.0968 17.9212 97.7319 17.5781 98.3867L17.5469 98.375ZM21.0625 93.668L19.4141 92C20.0009 91.4196 20.6204 90.8731 21.2695 90.3633L22.7188 92.2031C22.1509 92.6657 21.6085 93.1586 21.0938 93.6797L21.0625 93.668ZM25.8281 90.2344L24.7461 88.1562C25.4777 87.7757 26.2302 87.4366 27 87.1406L27.8438 89.3281C27.1552 89.5916 26.4822 89.8942 25.8281 90.2344ZM31.3867 88.332L30.9688 86.0273C31.7803 85.8822 32.5993 85.7818 33.4219 85.7266L33.5781 88.0703C32.8438 88.1116 32.1123 88.1925 31.3867 88.3125V88.332ZM39.75 88.0195H37.4062V85.6758H39.75V88.0195Z" fill="#B4B9C0"/>
<path d="M161.148 149.676C164.436 149.677 167.589 150.984 169.913 153.309C172.237 155.634 173.543 158.787 173.543 162.074C173.543 158.787 174.849 155.634 177.173 153.309C179.497 150.984 182.65 149.677 185.938 149.676C182.65 149.676 179.498 148.37 177.173 146.046C174.849 143.721 173.543 140.568 173.543 137.281C173.543 140.568 172.237 143.721 169.913 146.046C167.588 148.37 164.436 149.676 161.148 149.676ZM16.5195 67.2695C18.1329 67.2706 19.6799 67.9122 20.8204 69.0534C21.9609 70.1947 22.6016 71.7421 22.6016 73.3555C22.6026 71.7417 23.2441 70.1943 24.3852 69.0532C25.5263 67.9121 27.0737 67.2706 28.6875 67.2695C27.0741 67.2695 25.5267 66.6289 24.3855 65.4884C23.2443 64.3479 22.6026 62.8009 22.6016 61.1875C22.6016 62.8006 21.9608 64.3475 20.8202 65.4881C19.6796 66.6288 18.1326 67.2695 16.5195 67.2695Z" fill="#4992FF"/>
<defs>
<linearGradient id="paint0_linear_7001_25263" x1="51.8672" y1="105.426" x2="125.996" y2="105.426" gradientUnits="userSpaceOnUse">
<stop stop-color="#CACFDD"/>
<stop offset="1" stop-color="#EEF0F1"/>
</linearGradient>
<linearGradient id="paint1_linear_7001_25263" x1="51.8672" y1="52.1055" x2="83.0195" y2="52.1055" gradientUnits="userSpaceOnUse">
<stop stop-color="#CACFDD"/>
<stop offset="1" stop-color="#EEF0F1"/>
</linearGradient>
</defs>
</svg>
