<svg width="150" height="150" viewBox="0 0 150 150" fill="none" xmlns="http://www.w3.org/2000/svg">
<g clip-path="url(#clip0_7008_6723)">
<path d="M74.9994 141.325C110.226 141.325 138.782 112.768 138.782 77.5423C138.782 42.3162 110.226 13.7598 74.9994 13.7598C39.7732 13.7598 11.2168 42.3162 11.2168 77.5423C11.2168 112.768 39.7732 141.325 74.9994 141.325Z" fill="#F5F9FF"/>
<path d="M79.6097 139.883C114.836 139.883 143.392 111.327 143.392 76.1009C143.392 40.8748 114.836 12.3184 79.6097 12.3184C44.3836 12.3184 15.8271 40.8748 15.8271 76.1009C15.8271 111.327 44.3836 139.883 79.6097 139.883Z" stroke="#4992FF" stroke-width="0.400351" stroke-miterlimit="3" stroke-linecap="round"/>
<path d="M106.648 86.4932C109.471 90.0914 108.842 95.2969 105.243 98.1193C101.645 100.942 96.439 100.313 93.6166 96.7137C93.3966 96.4337 93.152 96.1504 92.8824 95.8662C91.702 94.6193 90.1018 93.3995 88.1609 92.3053C84.6485 90.3253 80.2709 88.8908 75.5178 88.2417C68.019 87.2175 61.0186 88.3602 56.7446 90.9307C56.4088 91.1323 56.0972 91.3396 55.8103 91.5503C52.1264 94.2608 46.9429 93.471 44.2328 89.7869C41.5226 86.1029 42.312 80.9193 45.996 78.2096C46.7012 77.6908 47.44 77.1999 48.2102 76.7368C55.9455 72.0856 66.7265 70.3252 77.759 71.8319C84.542 72.7583 90.9194 74.8487 96.2929 77.8768C99.6244 79.7552 102.542 81.9782 104.911 84.4806C105.529 85.1333 106.108 85.8042 106.648 86.4932Z" fill="#4992FF"/>
<path d="M130.204 68.0359C132.941 71.7001 132.189 76.8892 128.525 79.6264C124.861 82.363 119.672 81.6109 116.935 77.9466C116.254 77.0351 115.506 76.1356 114.695 75.2525C113.872 74.3576 112.985 73.4814 112.037 72.6273C111.079 71.7643 110.06 70.9255 108.983 70.1153C107.899 69.2982 106.757 68.5108 105.564 67.7573C104.362 66.999 103.111 66.276 101.812 65.591C100.507 64.9033 99.1575 64.255 97.7667 63.6493C96.3719 63.0422 94.9386 62.4785 93.4706 61.9608C92.0035 61.4432 90.5023 60.9722 88.9729 60.5496C87.4483 60.1284 85.8961 59.7558 84.3204 59.4334C82.7552 59.1131 81.1682 58.8424 79.5633 58.6232C77.9587 58.4041 76.3574 58.2393 74.7633 58.1281C73.1592 58.0162 71.5638 57.959 69.9814 57.9558C68.3949 57.9529 66.8228 58.0042 65.27 58.1093C63.717 58.2144 62.185 58.3731 60.6791 58.5841C59.1771 58.7948 57.7026 59.0573 56.261 59.37C54.8264 59.6816 53.4263 60.0424 52.0658 60.4509C50.7141 60.8567 49.4034 61.3092 48.139 61.8055C46.885 62.2975 45.6784 62.8323 44.5238 63.4067C43.3816 63.9754 42.2921 64.5817 41.2598 65.2232C40.2408 65.8563 39.2793 66.5224 38.3789 67.2178C34.7595 70.0141 29.559 69.3473 26.7627 65.7283C23.9665 62.1088 24.6338 56.9081 28.2529 54.1121C29.6031 53.0689 31.027 52.0824 32.5189 51.1555C33.9973 50.2368 35.5414 49.3773 37.1454 48.5792C38.7371 47.7869 40.3865 47.056 42.0876 46.3882C43.7782 45.7248 45.5186 45.1242 47.3029 44.5885C49.0778 44.0555 50.8948 43.5872 52.7479 43.185C54.5929 42.7844 56.4723 42.4498 58.38 42.1823C60.2791 41.9162 62.2051 41.7166 64.1521 41.5849C66.0883 41.454 68.0438 41.3901 70.0135 41.3937C71.97 41.3977 73.9389 41.4681 75.9153 41.6059C77.8737 41.7426 79.8382 41.9449 81.8045 42.2134C83.7704 42.4819 85.7176 42.8139 87.6405 43.2073C89.5821 43.6045 91.4976 44.0646 93.3831 44.5854C95.2822 45.1102 97.1488 45.6961 98.9788 46.3413C100.819 46.9903 102.621 47.699 104.38 48.4647C106.146 49.2339 107.866 50.0602 109.537 50.9409C111.214 51.8252 112.838 52.7636 114.406 53.753C115.981 54.7475 117.496 55.7928 118.948 56.8853C120.407 57.9848 121.8 59.1312 123.121 60.3212C124.453 61.5202 125.71 62.7624 126.888 64.0439C128.076 65.3368 129.183 66.6689 130.204 68.0359Z" fill="#4992FF"/>
<path d="M84.7432 112.487C83.8149 119.285 77.5524 124.042 70.7551 123.114C63.958 122.185 59.2004 115.923 60.1287 109.126C61.0571 102.328 67.3197 97.5709 74.1168 98.4992C80.9141 99.4275 85.6716 105.69 84.7432 112.487Z" fill="#4992FF"/>
<path fill-rule="evenodd" clip-rule="evenodd" d="M61.6688 41.7882L64.9211 48.8777C65.8007 50.7936 65.566 53.0366 64.3102 54.7295C63.0545 56.4225 60.9763 57.2979 58.888 57.0127L29.7087 53.0275C30.6156 52.3783 31.5532 51.753 32.5185 51.1532C33.9971 50.2345 35.5411 49.3747 37.1454 48.5769C38.7368 47.7847 40.3866 47.0533 42.087 46.3863C43.7776 45.7226 45.5178 45.1222 47.3021 44.5862C49.0774 44.0527 50.8948 43.5843 52.7472 43.1828C54.5921 42.7822 56.4721 42.4476 58.3797 42.1799C59.4675 42.0271 60.5644 41.8972 61.6688 41.7882Z" fill="#4992FF"/>
<path fill-rule="evenodd" clip-rule="evenodd" d="M40.6427 17.2283C42.0104 15.6099 44.111 14.8027 46.2118 15.0896C48.3113 15.3764 50.1186 16.7173 51.0022 18.6431C54.4878 26.2401 59.5112 37.1887 63.1686 45.1603C64.1108 47.2138 63.8598 49.618 62.5134 51.4328C61.1685 53.2468 58.9397 54.185 56.7021 53.8795C47.5988 52.6362 34.8064 50.8891 25.7044 49.646C23.4656 49.3402 21.5712 47.8388 20.7607 45.7305C19.9503 43.6211 20.3531 41.2377 21.8114 39.512C27.4725 32.8131 35.2477 23.6124 40.6427 17.2283Z" fill="#FFAD4F"/>
<path fill-rule="evenodd" clip-rule="evenodd" d="M47.4749 24.7737C47.5669 24.1006 47.3874 23.4177 46.9769 22.8763C46.5654 22.3356 45.9565 21.9797 45.2834 21.8878C45.2825 21.8877 45.2825 21.8877 45.2825 21.8877C44.6093 21.7958 43.9274 21.9753 43.3859 22.3858C42.8453 22.7974 42.4893 23.4071 42.3973 24.0802C41.966 27.2389 41.2336 32.6015 40.8022 35.7602C40.7102 36.4334 40.8897 37.1162 41.3003 37.6568C41.7117 38.1983 42.3206 38.5542 42.9937 38.6461C42.9937 38.6461 42.9937 38.6461 42.9946 38.6462C43.6678 38.7382 44.3497 38.5586 44.8913 38.1472C45.4319 37.7365 45.7878 37.1268 45.8798 36.4537C46.3112 33.295 47.0436 27.9324 47.4749 24.7737Z" fill="white"/>
<path d="M41.9207 46.5033C43.5523 46.7261 45.0556 45.5841 45.2784 43.9525C45.5012 42.321 44.3592 40.8177 42.7277 40.5949C41.0961 40.372 39.5928 41.514 39.37 43.1456C39.1471 44.7772 40.2892 46.2805 41.9207 46.5033Z" fill="white"/>
<path fill-rule="evenodd" clip-rule="evenodd" d="M111.411 37.0323L119.826 19.2384C120.242 18.3587 119.866 17.3068 118.986 16.8908C118.107 16.4747 117.055 16.8512 116.639 17.7308L108.223 35.5248C107.807 36.4044 108.184 37.4563 109.063 37.8724C109.943 38.2884 110.995 37.912 111.411 37.0323Z" fill="#4992FF"/>
<path fill-rule="evenodd" clip-rule="evenodd" d="M98.5068 33.4362L99.514 23.0256C99.6078 22.0571 98.8975 21.1946 97.9289 21.101C96.9604 21.0072 96.098 21.7175 96.0043 22.6861L94.997 33.0967C94.9033 34.0652 95.6135 34.9277 96.5822 35.0214C97.5507 35.1151 98.4132 34.4048 98.5068 33.4362Z" fill="#4992FF"/>
<path fill-rule="evenodd" clip-rule="evenodd" d="M122.502 46.1032L129.91 38.7199C130.599 38.0329 130.601 36.9157 129.914 36.2265C129.228 35.5372 128.11 35.5354 127.421 36.2223L120.013 43.6057C119.324 44.2925 119.322 45.4098 120.009 46.099C120.696 46.7883 121.813 46.7901 122.502 46.1032Z" fill="#4992FF"/>
</g>
<defs>
<clipPath id="clip0_7008_6723">
<rect width="150" height="150" fill="white"/>
</clipPath>
</defs>
</svg>
