<svg width="151" height="150" viewBox="0 0 151 150" fill="none" xmlns="http://www.w3.org/2000/svg">
<path fill-rule="evenodd" clip-rule="evenodd" d="M75.5 12.959C83.0187 12.959 84.875 20.5551 84.875 27.0215C84.875 33.4902 80.675 36.3965 75.5 36.3965C70.325 36.3965 66.125 33.4902 66.125 27.0215C66.125 20.5551 67.9813 12.959 75.5 12.959Z" fill="#D7E7FF"/>
<path fill-rule="evenodd" clip-rule="evenodd" d="M75.5 12.959C83.0188 12.959 84.875 20.5551 84.875 27.0215C84.875 33.4902 80.675 36.3965 75.5 36.3965C75.0313 36.3965 74.5695 36.373 74.1172 36.3238C78.6383 35.841 82.1117 32.902 82.1117 27.0215C82.1117 20.5785 83.0117 13.0176 75.5867 12.959H75.5Z" fill="#D7E7FF"/>
<path fill-rule="evenodd" clip-rule="evenodd" d="M75.5006 111.26C103.312 111.26 123.547 117.035 125.891 124.15C128.118 130.907 103.312 137.041 75.5006 137.041C47.6897 137.041 22.8834 130.907 25.11 124.15C27.4537 117.035 47.6897 111.26 75.5006 111.26Z" fill="#B8D5FF"/>
<path fill-rule="evenodd" clip-rule="evenodd" d="M119.251 118.24C122.884 120.01 125.19 122.021 125.891 124.151C128.118 130.908 103.311 137.042 75.5004 137.042C59.8512 137.042 45.1535 135.099 35.6895 132.197C43.3676 133.071 51.8379 133.568 60.5613 133.568C93.1348 133.568 122.19 126.643 119.582 119.014C119.49 118.748 119.38 118.49 119.251 118.24Z" fill="#B8CAE3"/>
<path d="M75.5 131.154C81.9721 131.154 87.2188 125.908 87.2188 119.436C87.2188 112.963 81.9721 107.717 75.5 107.717C69.0279 107.717 63.7812 112.963 63.7812 119.436C63.7812 125.908 69.0279 131.154 75.5 131.154Z" fill="#004DBF"/>
<path fill-rule="evenodd" clip-rule="evenodd" d="M63.9543 121.458C63.6599 119.774 63.7377 118.045 64.1821 116.394C64.6265 114.742 65.4268 113.208 66.5269 111.899C67.6269 110.59 69.0001 109.537 70.5502 108.814C72.1002 108.092 73.7895 107.717 75.4996 107.717C77.751 107.718 79.9547 108.366 81.8473 109.586C83.74 110.805 85.2417 112.544 86.173 114.593C82.2461 112.998 77.8885 112.811 73.8389 114.062C69.7894 115.313 66.2971 117.926 63.9543 121.458Z" fill="#002C6D"/>
<path fill-rule="evenodd" clip-rule="evenodd" d="M25.1094 124.15L35.0328 97.9262C38.5438 88.6487 40.3432 78.8114 40.3438 68.8918V59.3691C40.3438 50.6667 43.8008 42.3207 49.9543 36.1672C56.1078 30.0137 64.4538 26.5566 73.1562 26.5566H77.8438C86.5462 26.5566 94.8922 30.0137 101.046 36.1672C107.199 42.3207 110.656 50.6667 110.656 59.3691V69.1121C110.657 79.1093 112.484 89.0222 116.049 98.3621L125.891 124.15C123.547 117.035 103.311 111.26 75.5 111.26C49.4258 111.26 30.0125 116.336 25.7563 122.833L25.1094 124.15Z" fill="url(#paint0_linear_7001_24914)"/>
<path fill-rule="evenodd" clip-rule="evenodd" d="M74.2414 26.5566C42.6523 40.0848 51.057 66.302 45.8891 90.2129C44.4219 97.0004 41.8602 106.582 36.9805 116.151C31.3039 118.026 27.3992 120.323 25.7563 122.833L25.1094 124.15L35.0328 97.9262C38.5438 88.6487 40.3432 78.8114 40.3438 68.8918V59.3691C40.3438 50.6667 43.8008 42.3207 49.9543 36.1672C56.1078 30.0137 64.4538 26.5566 73.1562 26.5566H74.2414Z" fill="#F2F8FD"/>
<path fill-rule="evenodd" clip-rule="evenodd" d="M10.719 49.4508C19.0557 56.393 26.7268 59.7984 32.8768 60.6305C37.9862 61.3219 42.1487 60.2672 45.0338 58.0594C48.062 55.7461 49.7987 52.1461 49.719 47.6086C49.6393 43.1109 47.9541 39.9094 45.6713 37.8656C39.9901 32.7773 30.4698 34.8024 28.6862 42.4289C28.5455 43.0343 28.6506 43.6707 28.9783 44.1988C29.306 44.7268 29.8297 45.1034 30.4346 45.2461C31.04 45.3867 31.6764 45.2817 32.2045 44.954C32.7325 44.6262 33.1091 44.1026 33.2518 43.4977C34.2174 39.3609 39.4627 38.5969 42.5424 41.3578C44.0166 42.675 44.9799 44.7891 45.0315 47.6906C45.0737 50.0953 44.3963 52.1133 43.0393 53.5664C41.6588 55.043 39.6127 55.9031 37.0979 56.107C31.1612 56.5875 22.958 53.5406 13.719 45.8484C13.2413 45.4506 12.6251 45.2589 12.006 45.3153C11.3869 45.3718 10.8156 45.6719 10.4178 46.1496C10.02 46.6273 9.82822 47.2435 9.8847 47.8626C9.94118 48.4817 10.2413 49.053 10.719 49.4508Z" fill="#4992FF"/>
<path fill-rule="evenodd" clip-rule="evenodd" d="M10.5811 70.4201C19.4428 79.0779 37.7475 81.4099 52.8998 75.6208C68.4202 69.6935 73.0725 64.3662 83.3194 60.7052C84.5381 60.2693 85.1733 58.9263 84.7397 57.7076C84.5294 57.1232 84.0962 56.6459 83.5348 56.3801C82.9734 56.1144 82.3297 56.0818 81.7444 56.2896C71.4647 59.9622 66.7959 65.2966 51.2264 71.2427C37.8623 76.3474 21.6717 74.7021 13.8577 67.0685C13.6386 66.8486 13.378 66.6744 13.0911 66.5561C12.8042 66.4377 12.4966 66.3775 12.1862 66.3789C11.8758 66.3804 11.5688 66.4435 11.283 66.5646C10.9972 66.6857 10.7383 66.8623 10.5213 67.0842C10.3044 67.3062 10.1336 67.569 10.019 67.8575C9.90447 68.146 9.84833 68.4543 9.85389 68.7646C9.85945 69.075 9.9266 69.3811 10.0514 69.6653C10.1763 69.9495 10.3563 70.206 10.5811 70.4201Z" fill="#4992FF"/>
<path fill-rule="evenodd" clip-rule="evenodd" d="M95.3044 56.775C99.3731 54.7242 107.504 52.7367 112.158 54.525C112.734 54.7302 113.368 54.7022 113.923 54.4469C114.479 54.1917 114.913 53.7295 115.132 53.1588C115.352 52.5882 115.34 51.9544 115.098 51.3925C114.857 50.8307 114.406 50.3854 113.841 50.1516C108.15 47.9625 98.1708 50.0813 93.195 52.5891C92.6445 52.8714 92.228 53.36 92.0363 53.9483C91.8445 54.5365 91.8932 55.1767 92.1716 55.7292C92.4501 56.2817 92.9356 56.7018 93.5225 56.8977C94.1094 57.0936 94.7499 57.0495 95.3044 56.775Z" fill="#4992FF"/>
<path fill-rule="evenodd" clip-rule="evenodd" d="M105.969 51.5337C109.109 35.2915 133.468 39.8173 138.781 54.6813C138.781 54.6813 135.61 55.0376 129.406 59.3688C118.983 66.6485 103.972 61.8649 105.969 51.5337Z" fill="#4992FF"/>
<path fill-rule="evenodd" clip-rule="evenodd" d="M74.67 103.345C83.4895 95.8849 96.6474 90.0184 106.519 89.4864C112.083 89.1864 116.595 90.5106 117.76 95.102C118.297 97.2161 118.118 98.9974 117.408 100.415C116.347 102.536 114.169 103.797 111.912 104.222C109.489 104.674 106.885 104.21 105.45 102.429C105.059 101.946 104.493 101.637 103.875 101.571C103.257 101.505 102.638 101.686 102.153 102.075C101.67 102.466 101.362 103.032 101.295 103.65C101.229 104.268 101.41 104.888 101.799 105.372C104.262 108.424 108.619 109.608 112.777 108.827C116.44 108.14 119.876 105.956 121.599 102.515C122.745 100.225 123.169 97.3591 122.302 93.9489C120.591 87.2036 114.439 84.3653 106.268 84.8059C95.5458 85.3825 81.2208 91.6661 71.6419 99.7661C71.1966 100.176 70.927 100.742 70.8893 101.346C70.8517 101.95 71.0489 102.546 71.4398 103.008C71.8308 103.47 72.3851 103.763 72.9871 103.826C73.5891 103.888 74.192 103.716 74.67 103.345Z" fill="#4992FF"/>
<defs>
<linearGradient id="paint0_linear_7001_24914" x1="57.8686" y1="30.3338" x2="113.459" y2="113.584" gradientUnits="userSpaceOnUse">
<stop stop-color="#E9F3FC"/>
<stop offset="1" stop-color="#CADCF0"/>
</linearGradient>
</defs>
</svg>
