<svg width="24" height="24" viewBox="0 0 24 24" fill="none" xmlns="http://www.w3.org/2000/svg">
<path d="M21.7003 13.3C21.4003 13.9 20.9003 14.3 20.4003 14.6L6.40026 21.6C4.90026 22.3 3.10026 21.7 2.40026 20.3C1.90026 19.5 1.90026 18.6 2.30026 17.8L4.40026 13L13.5003 13C14.1003 13 14.5003 12.6 14.5003 12C14.5003 11.4 14.1003 11 13.5003 11L4.40026 11L2.30027 6.20001C1.60027 4.70001 2.30027 2.90001 3.80027 2.20001C4.20027 2.10001 4.60027 2.00001 5.00027 2.00001C5.50027 2.00001 5.90027 2.10001 6.30027 2.30001L20.3003 9.30002C21.8003 10.1 22.4003 11.9 21.7003 13.3Z" fill="#4992FF"/>
</svg>
