<svg width="150" height="150" viewBox="0 0 150 150" fill="none" xmlns="http://www.w3.org/2000/svg">
<path fill-rule="evenodd" clip-rule="evenodd" d="M140.66 73.9263C140.66 81.872 139.227 89.5015 136.571 96.5198C136.424 96.8992 136.276 97.2785 136.129 97.6368C133.895 103.285 130.881 108.533 127.214 113.254C126.94 113.612 126.666 113.95 126.392 114.287C123.525 117.849 120.28 121.094 116.718 123.961C116.254 124.34 115.769 124.72 115.285 125.078C114.463 125.689 113.641 126.3 112.798 126.89C112.65 126.996 112.503 127.101 112.355 127.185C112.123 127.333 111.891 127.502 111.659 127.649C111.596 127.691 111.554 127.712 111.491 127.754C111.196 127.944 110.901 128.134 110.627 128.324C100.679 134.625 88.8974 138.25 76.2728 138.25C63.6694 138.25 51.93 134.625 42.0032 128.366C41.9821 128.345 41.94 128.324 41.9189 128.302C41.5817 128.092 41.2234 127.86 40.8862 127.628C40.6543 127.48 40.4225 127.333 40.2118 127.164C39.2212 126.49 38.2517 125.794 37.2822 125.057C36.7974 124.698 36.3127 124.319 35.849 123.94C32.6455 121.347 29.6948 118.46 27.0392 115.32C26.4491 114.624 25.9011 113.929 25.3532 113.212C16.9438 102.337 11.9277 88.7006 11.9277 73.8842C11.9277 63.03 14.6044 52.8081 19.3676 43.8508C21.0747 40.6473 23.0348 37.5912 25.2267 34.7249C26.3859 33.2285 27.6083 31.7743 28.8939 30.3622C29.5051 29.6877 30.1374 29.0344 30.7697 28.4021C30.8751 28.2967 31.0015 28.1703 31.1069 28.0649C34.2472 24.9667 37.7248 22.1847 41.4342 19.782C51.4664 13.2906 63.4375 9.53906 76.2728 9.53906C94.061 9.53906 110.142 16.7471 121.797 28.4021C123.778 30.3832 125.612 32.4909 127.319 34.7038C129.005 36.8747 130.544 39.1719 131.914 41.5746C132.124 41.954 132.335 42.3123 132.546 42.6916C136.93 50.5952 139.712 59.5314 140.407 69.0156C140.428 69.395 140.47 69.7743 140.491 70.1326C140.639 71.4183 140.66 72.6617 140.66 73.9263Z" fill="#F5F9FF"/>
<path fill-rule="evenodd" clip-rule="evenodd" d="M126.422 114.298C123.556 117.86 120.313 121.103 116.751 123.969C116.273 124.347 115.796 124.725 115.318 125.083C114.502 125.7 113.666 126.297 112.83 126.894C112.691 126.994 112.532 127.093 112.393 127.193C112.174 127.352 111.935 127.491 111.716 127.651C111.656 127.69 111.617 127.73 111.557 127.75C111.258 127.949 110.98 128.128 110.681 128.307C100.731 134.596 88.9507 138.237 76.3143 138.237C63.7178 138.257 51.9769 134.655 42.0469 128.387V117.402C42.0469 116.507 42.4051 115.651 43.0419 115.014C43.6389 114.417 44.415 114.079 45.2508 114.039C45.2706 114.039 45.3104 114.039 45.3303 114.039C45.3502 114.039 45.39 114.039 45.4099 114.039H125.109C125.129 114.039 125.168 114.039 125.188 114.039C125.626 114.059 126.044 114.139 126.422 114.298Z" fill="#4992FF"/>
<path d="M112.453 127.203C112.236 127.362 112.02 127.502 111.803 127.661C111.803 127.701 111.695 127.74 111.695 127.76C111.371 127.959 111.154 128.138 110.829 128.318H78.2539V127.203H112.453Z" fill="#004DBF"/>
<path fill-rule="evenodd" clip-rule="evenodd" d="M110.696 128.327C100.746 134.615 88.9652 138.257 76.3288 138.257C63.7322 138.257 51.9714 134.635 42.0613 128.387C42.0215 128.367 42.0016 128.347 41.9618 128.327C41.6235 128.108 41.2653 127.889 40.927 127.651C40.7081 127.491 40.4694 127.352 40.2505 127.193C39.2555 126.516 38.2804 125.82 37.3252 125.083C36.8476 124.725 36.37 124.347 35.8924 123.969C32.6885 121.382 29.7434 118.497 27.0967 115.352C27.1763 115.233 27.2758 115.134 27.3753 115.034C27.9922 114.417 28.8081 114.059 29.6837 114.039C29.7036 114.039 29.7434 114.039 29.7633 114.039H109.462C109.482 114.039 109.522 114.039 109.542 114.039C109.561 114.039 109.601 114.039 109.621 114.039C110.457 114.079 111.253 114.437 111.83 115.014C112.467 115.651 112.825 116.507 112.825 117.402V126.894C112.686 126.994 112.527 127.093 112.387 127.193C112.168 127.352 111.93 127.491 111.711 127.651" fill="#71AAFF"/>
<path d="M100.623 132.515C103.239 132.515 105.359 130.395 105.359 127.779C105.359 125.163 103.239 123.043 100.623 123.043C98.0072 123.043 95.8867 125.163 95.8867 127.779C95.8867 130.395 98.0072 132.515 100.623 132.515Z" fill="#71AAFF"/>
<path d="M86.5516 132.515C89.1673 132.515 91.2877 130.395 91.2877 127.779C91.2877 125.163 89.1673 123.043 86.5516 123.043C83.9359 123.043 81.8154 125.163 81.8154 127.779C81.8154 130.395 83.9359 132.515 86.5516 132.515Z" fill="#71AAFF"/>
<path d="M77.2039 127.203V128.318H41.9614C41.6231 128.099 41.2649 127.88 40.9266 127.641C40.7077 127.482 40.4689 127.343 40.25 127.184H77.2039V127.203Z" fill="#4992FF"/>
<path fill-rule="evenodd" clip-rule="evenodd" d="M128.502 35.0479V55.7641C128.502 56.6521 128.142 57.5176 127.513 58.1471C126.906 58.7541 126.085 59.1138 125.208 59.1363C125.186 59.1363 125.152 59.1363 125.118 59.1363H45.4234C45.4009 59.1363 45.3672 59.1363 45.3447 59.1363C45.3222 59.1363 45.2885 59.1363 45.266 59.1363C44.4342 59.0913 43.6362 58.7428 43.0517 58.1471C42.4222 57.5176 42.0625 56.6634 42.0625 55.7641V35.0479C42.0625 34.1599 42.4222 33.2944 43.0517 32.6649C43.6811 32.0355 44.5354 31.6758 45.4346 31.6758H125.141C126.04 31.6758 126.894 32.0355 127.524 32.6649C128.142 33.2944 128.502 34.1487 128.502 35.0479Z" fill="#71AAFF"/>
<path d="M128.487 44.8438C128.671 45.2147 128.304 45.5856 128.487 45.9678H78.0547V44.8438H128.487Z" fill="#4992FF"/>
<path fill-rule="evenodd" clip-rule="evenodd" d="M112.84 35.0479C112.84 34.1487 112.48 33.2944 111.851 32.6649C111.221 32.0355 110.367 31.6758 109.468 31.6758C95.6647 31.6758 43.5651 31.6758 29.7618 31.6758C28.8626 31.6758 28.0083 32.0355 27.3788 32.6649C26.7493 33.2944 26.3896 34.1599 26.3896 35.0479V55.7641C26.3896 56.6634 26.7493 57.5176 27.3788 58.1471C28.0083 58.7766 28.8738 59.1363 29.7618 59.1363H109.468C110.367 59.1363 111.221 58.7766 111.851 58.1471C112.48 57.5176 112.84 56.6521 112.84 55.7641C112.84 50.4811 112.84 40.3197 112.84 35.0479Z" fill="#B8D5FF"/>
<path d="M100.619 50.1383C103.233 50.1383 105.351 48.0196 105.351 45.4061C105.351 42.7925 103.233 40.6738 100.619 40.6738C98.0054 40.6738 95.8867 42.7925 95.8867 45.4061C95.8867 48.0196 98.0054 50.1383 100.619 50.1383Z" fill="#FFAD4F"/>
<path d="M86.5447 50.1383C89.1583 50.1383 91.277 48.0196 91.277 45.4061C91.277 42.7925 89.1583 40.6738 86.5447 40.6738C83.9312 40.6738 81.8125 42.7925 81.8125 45.4061C81.8125 48.0196 83.9312 50.1383 86.5447 50.1383Z" fill="#FFAD4F"/>
<path d="M39.774 51.125H30.9502V54.913H39.774V51.125Z" fill="white"/>
<path d="M47.3316 51.125H41.8262V54.913H47.3316V51.125Z" fill="white"/>
<path d="M77.1966 44.8438H26.3896V45.9678H77.1966V44.8438Z" fill="#71AAFF"/>
<path d="M109.062 45.4062H112.841" stroke="#71AAFF" stroke-width="7.36634" stroke-miterlimit="1.5" stroke-linejoin="round"/>
<path fill-rule="evenodd" clip-rule="evenodd" d="M128.503 89.9581C128.503 89.0588 128.144 88.2046 127.514 87.5751C126.885 86.9456 126.03 86.5859 125.131 86.5859C111.328 86.5859 59.2282 86.5859 45.4249 86.5859C44.5256 86.5859 43.6714 86.9456 43.0419 87.5751C42.4124 88.2046 42.0527 89.0701 42.0527 89.9581V110.674C42.0527 111.574 42.4124 112.428 43.0419 113.057C43.6714 113.687 44.5369 114.046 45.4249 114.046C59.2282 114.046 111.328 114.046 125.131 114.046C126.03 114.046 126.885 113.687 127.514 113.057C128.144 112.428 128.503 111.562 128.503 110.674C128.503 105.391 128.503 95.2299 128.503 89.9581Z" fill="#71AAFF"/>
<path d="M128.487 99.7539C128.365 100.125 128.61 100.507 128.487 100.878H78.0547V99.7539H128.487Z" fill="#4992FF"/>
<path fill-rule="evenodd" clip-rule="evenodd" d="M112.84 89.9581C112.84 89.0588 112.48 88.2046 111.851 87.5751C111.221 86.9456 110.367 86.5859 109.468 86.5859C95.6647 86.5859 43.5651 86.5859 29.7618 86.5859C28.8626 86.5859 28.0083 86.9456 27.3788 87.5751C26.7493 88.2046 26.3896 89.0701 26.3896 89.9581V110.674C26.3896 111.574 26.7493 112.428 27.3788 113.057C28.0083 113.687 28.8738 114.046 29.7618 114.046C43.5651 114.046 95.6647 114.046 109.468 114.046C110.367 114.046 111.221 113.687 111.851 113.057C112.48 112.428 112.84 111.562 112.84 110.674C112.84 105.391 112.84 95.2299 112.84 89.9581Z" fill="#B8D5FF"/>
<path d="M100.619 105.048C103.233 105.048 105.351 102.93 105.351 100.316C105.351 97.7027 103.233 95.584 100.619 95.584C98.0054 95.584 95.8867 97.7027 95.8867 100.316C95.8867 102.93 98.0054 105.048 100.619 105.048Z" fill="#71AAFF"/>
<path d="M86.5447 105.048C89.1583 105.048 91.277 102.93 91.277 100.316C91.277 97.7027 89.1583 95.584 86.5447 95.584C83.9312 95.584 81.8125 97.7027 81.8125 100.316C81.8125 102.93 83.9312 105.048 86.5447 105.048Z" fill="#71AAFF"/>
<path d="M39.774 106.035H30.9502V109.823H39.774V106.035Z" fill="white"/>
<path d="M47.3316 106.035H41.8262V109.823H47.3316V106.035Z" fill="white"/>
<path d="M77.1966 99.7539H26.3896V100.878H77.1966V99.7539Z" fill="#71AAFF"/>
<path d="M109.061 100.316H112.84" stroke="#71AAFF" stroke-width="7.36634" stroke-miterlimit="1.5" stroke-linejoin="round"/>
<path fill-rule="evenodd" clip-rule="evenodd" d="M128.5 62.501C128.5 61.6018 128.141 60.7475 127.511 60.1181C126.882 59.4886 126.027 59.1289 125.128 59.1289C111.325 59.1289 59.2252 59.1289 45.4219 59.1289C44.5227 59.1289 43.6684 59.4886 43.039 60.1181C42.4095 60.7475 42.0498 61.6131 42.0498 62.501V83.2172C42.0498 84.1165 42.4095 84.9708 43.039 85.6002C43.6684 86.2297 44.5339 86.5894 45.4219 86.5894H125.128C126.027 86.5894 126.882 86.2297 127.511 85.6002C128.141 84.9708 128.5 84.1052 128.5 83.2172C128.5 77.9342 128.5 67.7728 128.5 62.501Z" fill="#4992FF"/>
<path d="M128.487 72.2969C128.487 72.6453 128.487 73.1174 128.487 73.4209H78.0547V72.2969H128.487Z" fill="#004DBF"/>
<path fill-rule="evenodd" clip-rule="evenodd" d="M112.84 62.501C112.84 61.6018 112.48 60.7475 111.851 60.1181C111.221 59.4886 110.367 59.1289 109.468 59.1289C95.6647 59.1289 43.5651 59.1289 29.7618 59.1289C28.8626 59.1289 28.0083 59.4886 27.3788 60.1181C26.7493 60.7475 26.3896 61.6131 26.3896 62.501V83.2172C26.3896 84.1165 26.7493 84.9708 27.3788 85.6002C28.0083 86.2297 28.8738 86.5894 29.7618 86.5894H109.468C110.367 86.5894 111.221 86.2297 111.851 85.6002C112.48 84.9708 112.84 84.1052 112.84 83.2172C112.84 77.9342 112.84 67.7728 112.84 62.501Z" fill="#71AAFF"/>
<path d="M100.619 77.5914C103.233 77.5914 105.351 75.4727 105.351 72.8592C105.351 70.2456 103.233 68.127 100.619 68.127C98.0054 68.127 95.8867 70.2456 95.8867 72.8592C95.8867 75.4727 98.0054 77.5914 100.619 77.5914Z" fill="#71AAFF"/>
<path d="M86.5447 77.5914C89.1583 77.5914 91.277 75.4727 91.277 72.8592C91.277 70.2456 89.1583 68.127 86.5447 68.127C83.9312 68.127 81.8125 70.2456 81.8125 72.8592C81.8125 75.4727 83.9312 77.5914 86.5447 77.5914Z" fill="#71AAFF"/>
<path d="M39.774 78.5781H30.9502V82.3662H39.774V78.5781Z" fill="white"/>
<path d="M47.3296 78.5781H41.8242V82.3662H47.3296V78.5781Z" fill="white"/>
<path d="M77.1966 72.2969H26.3896V73.4209H77.1966V72.2969Z" fill="#4992FF"/>
<path d="M109.061 72.8594H112.84" stroke="#71AAFF" stroke-width="7.36634" stroke-miterlimit="1.5" stroke-linejoin="round"/>
<path fill-rule="evenodd" clip-rule="evenodd" d="M51.4393 43.7804C51.2258 44.1626 50.9785 44.5223 50.6975 44.8483C50.3265 45.2754 49.8994 45.6576 49.4385 45.9723C48.3707 46.7029 47.1005 47.1076 45.7629 47.1076H14.2558C11.8953 47.1076 9.72593 45.8374 8.5794 43.7804C7.43287 41.7234 7.47783 39.2055 8.71429 37.1935C13.4353 29.5275 19.8986 19.0177 24.4734 11.5989C25.6537 9.67682 27.7556 8.50781 30.015 8.50781C32.2743 8.50781 34.3763 9.67682 35.5565 11.5989C37.6248 14.9598 40.0864 18.9615 42.6043 23.053C44.3916 25.953 46.2013 28.898 47.9098 31.6744C49.1013 33.6078 50.2478 35.4737 51.3044 37.1935C52.5409 39.2055 52.5971 41.7234 51.4393 43.7804Z" fill="#FFAD4F"/>
<path fill-rule="evenodd" clip-rule="evenodd" d="M32.2677 18.4625C32.2677 17.2148 31.2561 16.2031 30.0084 16.2031C28.7607 16.2031 27.749 17.2148 27.749 18.4625C27.749 21.8009 27.749 28.0393 27.749 31.3778C27.749 32.6255 28.7607 33.6371 30.0084 33.6371C31.2561 33.6371 32.2677 32.6255 32.2677 31.3778C32.2677 28.0393 32.2677 21.8121 32.2677 18.4625Z" fill="white"/>
<path d="M30.0091 40.7525C31.3872 40.7525 32.5044 39.6353 32.5044 38.2571C32.5044 36.8789 31.3872 35.7617 30.0091 35.7617C28.6309 35.7617 27.5137 36.8789 27.5137 38.2571C27.5137 39.6353 28.6309 40.7525 30.0091 40.7525Z" fill="white"/>
</svg>
