<svg width="101" height="100" viewBox="0 0 101 100" fill="none" xmlns="http://www.w3.org/2000/svg">
<path d="M50.5013 1.04199C23.5013 1.04199 1.54297 23.0003 1.54297 50.0003C1.54297 77.0003 23.5013 98.9587 50.5013 98.9587C77.5013 98.9587 99.4596 77.0003 99.4596 50.0003C99.4596 23.0003 77.5013 1.04199 50.5013 1.04199ZM73.2305 39.1045L47.0221 65.3128C46.4388 65.8962 45.6471 66.2295 44.8138 66.2295C43.9805 66.2295 43.1888 65.8962 42.6055 65.3128L27.7721 50.4795C26.543 49.2503 26.543 47.2712 27.7721 46.0628C29.0013 44.8337 30.9805 44.8337 32.1888 46.0628L44.8138 58.6878L68.8138 34.6878C70.043 33.4587 72.0221 33.4587 73.2305 34.6878C74.4596 35.8962 74.4596 37.8753 73.2305 39.1045Z" fill="#22C55E"/>
</svg>
