<svg width="150" height="150" viewBox="0 0 150 150" fill="none" xmlns="http://www.w3.org/2000/svg">
<g clip-path="url(#clip0_7616_23440)">
<path d="M0 75C0 33.5786 33.5786 0 75 0V0C116.421 0 150 33.5786 150 75V75C150 116.421 116.421 150 75 150V150C33.5786 150 0 116.421 0 75V75Z" fill="#CDCFCE"/>
<path d="M47.8333 53.6667C47.8333 61.0043 50.7482 68.0414 55.9367 73.23C61.1252 78.4185 68.1623 81.3333 75.5 81.3333C82.8377 81.3333 89.8748 78.4185 95.0633 73.23C100.252 68.0414 103.167 61.0043 103.167 53.6667C103.167 46.329 100.252 39.2919 95.0633 34.1034C89.8748 28.9149 82.8377 26 75.5 26C68.1623 26 61.1252 28.9149 55.9367 34.1034C50.7482 39.2919 47.8333 46.329 47.8333 53.6667Z" fill="white"/>
<path d="M34 150.5V136.667C34 129.329 36.9149 122.292 42.1034 117.103C47.2919 111.915 54.329 109 61.6667 109H89.3333C96.671 109 103.708 111.915 108.897 117.103C114.085 122.292 117 129.329 117 136.667V150.5" fill="white"/>
<path d="M34 150.5V136.667C34 129.329 36.9149 122.292 42.1034 117.103C47.2919 111.915 54.329 109 61.6667 109H89.3333C96.671 109 103.708 111.915 108.897 117.103C114.085 122.292 117 129.329 117 136.667V150.5M47.8333 53.6667C47.8333 61.0043 50.7482 68.0414 55.9367 73.23C61.1252 78.4185 68.1623 81.3333 75.5 81.3333C82.8377 81.3333 89.8748 78.4185 95.0633 73.23C100.252 68.0414 103.167 61.0043 103.167 53.6667C103.167 46.329 100.252 39.2919 95.0633 34.1034C89.8748 28.9149 82.8377 26 75.5 26C68.1623 26 61.1252 28.9149 55.9367 34.1034C50.7482 39.2919 47.8333 46.329 47.8333 53.6667Z" stroke="white" stroke-width="7.60305" stroke-linecap="round" stroke-linejoin="round"/>
</g>
<defs>
<clipPath id="clip0_7616_23440">
<path d="M0 75C0 33.5786 33.5786 0 75 0V0C116.421 0 150 33.5786 150 75V75C150 116.421 116.421 150 75 150V150C33.5786 150 0 116.421 0 75V75Z" fill="white"/>
</clipPath>
</defs>
</svg>
