<svg width="201" height="200" viewBox="0 0 201 200" fill="none" xmlns="http://www.w3.org/2000/svg">
<path d="M120.875 25.5859H64.5508C57.9363 25.5859 52.5742 30.948 52.5742 37.5625V159.305C52.5742 165.919 57.9363 171.281 64.5508 171.281H120.875C127.489 171.281 132.852 165.919 132.852 159.305V37.5625C132.852 30.948 127.489 25.5859 120.875 25.5859Z" fill="#EFEFF0"/>
<path d="M120.871 25.5859H64.5469C57.9324 25.5859 52.5703 30.948 52.5703 37.5625V159.309C52.5703 165.923 57.9324 171.285 64.5469 171.285H120.871C127.486 171.285 132.848 165.923 132.848 159.309V37.5625C132.848 30.948 127.486 25.5859 120.871 25.5859Z" fill="#EFEFF0"/>
<path d="M126.59 36.9961V159.875C126.59 161.24 126.048 162.549 125.083 163.514C124.119 164.48 122.81 165.022 121.445 165.023H63.9805C62.615 165.023 61.3055 164.481 60.34 163.516C59.3745 162.55 58.832 161.24 58.832 159.875V36.9961C58.832 35.6306 59.3745 34.3211 60.34 33.3556C61.3055 32.3901 62.615 31.8477 63.9805 31.8477H76.3477C76.7673 31.8477 77.1828 31.9303 77.5704 32.0909C77.9581 32.2515 78.3104 32.4868 78.6071 32.7835C78.9038 33.0803 79.1392 33.4325 79.2997 33.8202C79.4603 34.2078 79.543 34.6234 79.543 35.043C79.543 35.8915 79.88 36.7052 80.48 37.3052C81.08 37.9051 81.8937 38.2422 82.7422 38.2422H102.664C103.512 38.2412 104.325 37.9036 104.924 37.3038C105.523 36.7039 105.859 35.8908 105.859 35.043C105.86 34.1952 106.198 33.3824 106.798 32.7833C107.398 32.1842 108.211 31.8477 109.059 31.8477H121.441C122.807 31.8477 124.116 32.3901 125.082 33.3556C126.047 34.3211 126.59 35.6306 126.59 36.9961Z" fill="#F7F7F8"/>
<path style="mix-blend-mode:multiply" d="M132.852 131.097V159.308C132.85 162.485 131.588 165.531 129.341 167.777C127.094 170.023 124.048 171.285 120.871 171.285H100.988C93.789 150.167 111.004 128.878 132.852 131.097Z" fill="url(#paint0_linear_7001_24833)"/>
<path d="M98.747 86.5009C108.046 83.3298 113.013 73.2211 109.842 63.9222C106.671 54.6234 96.5626 49.6558 87.2638 52.8269C77.9649 55.9979 72.9974 66.1067 76.1684 75.4055C79.3394 84.7043 89.4482 89.6719 98.747 86.5009Z" fill="#F7F7F8"/>
<path style="mix-blend-mode:multiply" d="M110.797 92.4453C106.419 96.8242 100.58 99.4346 94.3976 99.7769C88.2151 100.119 82.1236 98.1695 77.2891 94.3008L72.7188 98.8711C73.0229 99.8908 73.0455 100.974 72.7841 102.005C72.5228 103.037 71.9873 103.979 71.2344 104.73C51.7031 124.262 53.2188 122.809 52.5703 123.242V118.246C53.2188 117.812 51.7891 119.188 71.2344 99.7344C71.9852 98.981 72.5192 98.0394 72.7804 97.0083C73.0416 95.9773 73.0203 94.895 72.7188 93.875L77.2891 89.3047C80.8231 92.1324 85.0545 93.9545 89.5374 94.5789C94.0202 95.2033 98.5885 94.6068 102.761 92.8524C106.933 91.098 110.555 88.2506 113.244 84.6103C115.934 80.97 117.592 76.6715 118.043 72.168C118.417 75.8739 117.96 79.6165 116.707 83.1239C115.454 86.6314 113.435 89.8156 110.797 92.4453Z" fill="url(#paint1_linear_7001_24833)"/>
<path d="M94.8086 74.1914H90.6133C90.6159 72.7724 90.9547 71.3742 91.6017 70.1113C92.2488 68.8484 93.1858 67.7568 94.3359 66.9257C94.7244 66.6472 95.0348 66.2736 95.2373 65.8406C95.4398 65.4076 95.5277 64.9298 95.4924 64.4531C95.4571 63.9764 95.2999 63.5168 95.0359 63.1183C94.7718 62.7199 94.4098 62.3959 93.9845 62.1777C93.5593 61.9594 93.085 61.8541 92.6074 61.8718C92.1297 61.8896 91.6646 62.0298 91.2567 62.279C90.8488 62.5283 90.5118 62.8782 90.2781 63.2951C90.0443 63.7121 89.9217 64.1821 89.9219 64.6601H85.7266C85.7269 63.4637 86.0345 62.2875 86.6199 61.2442C87.2053 60.2008 88.0489 59.3253 89.0699 58.7016C90.0908 58.078 91.2549 57.727 92.4504 57.6824C93.6459 57.6377 94.8329 57.9009 95.8975 58.4468C96.9621 58.9926 97.8686 59.8028 98.5302 60.7996C99.1918 61.7963 99.5863 62.9464 99.6757 64.1394C99.7652 65.3324 99.5468 66.5284 99.0413 67.6128C98.5358 68.6971 97.7603 69.6334 96.7891 70.332C96.1771 70.7727 95.6785 71.3524 95.3343 72.0233C94.99 72.6942 94.8098 73.4373 94.8086 74.1914Z" fill="#90BCFF"/>
<path d="M94.7773 77.4336H90.5664V81.6445H94.7773V77.4336Z" fill="#90BCFF"/>
<path d="M109.527 104.594H76.4961V109.117H109.527V104.594Z" fill="#EFEFF0"/>
<path d="M89.8047 117.059H76.4961V121.582H89.8047V117.059Z" fill="#EFEFF0"/>
<path d="M109.527 117.059H95.3125V121.582H109.527V117.059Z" fill="#EFEFF0"/>
<path d="M102.105 141.691H83.9102C82.495 141.691 81.1378 141.129 80.1371 140.129C79.1364 139.128 78.5742 137.771 78.5742 136.355C78.5742 134.94 79.1364 133.583 80.1371 132.582C81.1378 131.582 82.495 131.02 83.9102 131.02H102.105C103.521 131.02 104.878 131.582 105.879 132.582C106.879 133.583 107.441 134.94 107.441 136.355C107.441 137.771 106.879 139.128 105.879 140.129C104.878 141.129 103.521 141.691 102.105 141.691Z" fill="#A9AFC4"/>
<path d="M120.875 172.457H64.5625C61.0766 172.453 57.7346 171.066 55.2697 168.601C52.8048 166.136 51.4182 162.794 51.4141 159.309V37.5625C51.4182 34.0766 52.8048 30.7346 55.2697 28.2697C57.7346 25.8048 61.0766 24.4182 64.5625 24.4141H120.875C124.361 24.4182 127.703 25.8048 130.168 28.2697C132.633 30.7346 134.019 34.0766 134.023 37.5625V159.309C134.019 162.794 132.633 166.136 130.168 168.601C127.703 171.066 124.361 172.453 120.875 172.457ZM64.5625 26.7578C61.6979 26.7609 58.9515 27.9003 56.9259 29.9259C54.9003 31.9515 53.7609 34.6979 53.7578 37.5625V159.309C53.7609 162.173 54.9003 164.92 56.9259 166.945C58.9515 168.971 61.6979 170.11 64.5625 170.113H120.875C123.74 170.11 126.486 168.971 128.512 166.945C130.537 164.92 131.677 162.173 131.68 159.309V37.5625C131.677 34.6979 130.537 31.9515 128.512 29.9259C126.486 27.9003 123.74 26.7609 120.875 26.7578H64.5625Z" fill="#494A4C"/>
<path d="M154.336 161.422C154.336 166.268 152.899 171.006 150.206 175.036C147.514 179.065 143.687 182.206 139.209 184.061C134.732 185.915 129.805 186.4 125.052 185.455C120.298 184.509 115.932 182.176 112.505 178.749C109.078 175.322 106.744 170.956 105.799 166.202C104.853 161.449 105.339 156.522 107.193 152.045C109.048 147.567 112.189 143.74 116.218 141.048C120.248 138.355 124.986 136.918 129.832 136.918C136.33 136.921 142.561 139.504 147.155 144.098C151.75 148.693 154.333 154.924 154.336 161.422Z" fill="#F7F7F8"/>
<path d="M129.828 187.109C124.75 187.109 119.786 185.602 115.564 182.78C111.342 179.958 108.052 175.948 106.109 171.256C104.167 166.564 103.659 161.401 104.65 156.421C105.642 151.44 108.088 146.866 111.679 143.275C115.271 139.685 119.846 137.24 124.827 136.25C129.808 135.26 134.97 135.77 139.661 137.714C144.353 139.658 148.362 142.949 151.183 147.172C154.003 151.395 155.509 156.359 155.508 161.438C155.512 164.811 154.85 168.151 153.561 171.268C152.272 174.385 150.381 177.217 147.995 179.602C145.61 181.987 142.777 183.878 139.66 185.166C136.542 186.454 133.201 187.115 129.828 187.109ZM129.828 138.105C125.212 138.105 120.7 139.473 116.862 142.037C113.024 144.601 110.032 148.245 108.265 152.509C106.499 156.774 106.036 161.466 106.936 165.993C107.837 170.52 110.059 174.679 113.323 177.942C116.587 181.206 120.745 183.429 125.273 184.329C129.8 185.229 134.492 184.767 138.756 183C143.021 181.234 146.665 178.242 149.229 174.404C151.793 170.566 153.161 166.053 153.16 161.438C153.157 155.25 150.699 149.316 146.325 144.939C141.952 140.561 136.02 138.098 129.832 138.09L129.828 138.105Z" fill="#494A4C"/>
<path d="M129.832 158.594C128.218 158.594 126.67 157.953 125.529 156.811C124.387 155.67 123.746 154.122 123.746 152.508V151.098C123.746 149.484 124.387 147.936 125.529 146.794C126.67 145.653 128.218 145.012 129.832 145.012C131.446 145.012 132.994 145.653 134.135 146.794C135.277 147.936 135.918 149.484 135.918 151.098V152.508C135.918 153.307 135.761 154.099 135.456 154.837C135.15 155.576 134.702 156.247 134.137 156.812C133.571 157.378 132.9 157.826 132.162 158.132C131.423 158.437 130.631 158.594 129.832 158.594Z" fill="#90BCFF"/>
<path d="M141.727 166.535V173.898C138.521 176.954 134.263 178.659 129.834 178.659C125.405 178.659 121.147 176.954 117.941 173.898V166.535C117.939 165.493 118.143 164.461 118.54 163.497C118.938 162.534 119.521 161.658 120.257 160.921C120.993 160.183 121.868 159.598 122.831 159.199C123.793 158.799 124.825 158.594 125.867 158.594H133.797C134.839 158.594 135.871 158.799 136.834 159.198C137.797 159.598 138.672 160.183 139.408 160.92C140.145 161.658 140.729 162.534 141.126 163.497C141.524 164.46 141.728 165.493 141.727 166.535Z" fill="#90BCFF"/>
<path d="M151.559 158.535C156.428 158.535 160.375 154.588 160.375 149.719C160.375 144.85 156.428 140.902 151.559 140.902C146.689 140.902 142.742 144.85 142.742 149.719C142.742 154.588 146.689 158.535 151.559 158.535Z" fill="#F7F7F8"/>
<path d="M151.559 159.711C149.582 159.712 147.65 159.126 146.006 158.029C144.362 156.931 143.081 155.37 142.324 153.544C141.567 151.718 141.369 149.709 141.754 147.77C142.14 145.832 143.091 144.051 144.489 142.653C145.887 141.256 147.668 140.304 149.606 139.918C151.545 139.533 153.554 139.731 155.38 140.488C157.206 141.245 158.767 142.526 159.865 144.17C160.962 145.814 161.548 147.746 161.547 149.723C161.543 152.37 160.489 154.909 158.617 156.781C156.745 158.653 154.206 159.707 151.559 159.711ZM151.559 142.074C150.046 142.073 148.567 142.521 147.308 143.361C146.05 144.201 145.069 145.396 144.49 146.793C143.91 148.191 143.758 149.728 144.053 151.212C144.347 152.696 145.076 154.059 146.145 155.13C147.215 156.2 148.577 156.928 150.061 157.224C151.545 157.519 153.083 157.368 154.481 156.789C155.879 156.21 157.073 155.23 157.914 153.972C158.754 152.714 159.203 151.236 159.203 149.723C159.201 147.695 158.395 145.752 156.962 144.318C155.529 142.884 153.586 142.077 151.559 142.074Z" fill="#494A4C"/>
<path d="M153.588 145.639L147.489 151.738L149.555 153.804L155.654 147.706L153.588 145.639Z" fill="#90BCFF"/>
<path d="M149.555 145.641L147.489 147.707L153.588 153.806L155.654 151.74L149.555 145.641Z" fill="#90BCFF"/>
<path d="M49.2658 120.426C47.8651 120.43 46.4948 120.018 45.3286 119.242C44.1625 118.466 43.2531 117.362 42.7157 116.068C42.1784 114.775 42.0374 113.351 42.3106 111.977C42.5838 110.603 43.2588 109.341 44.2501 108.352L62.047 90.5589C63.3783 89.2552 65.1703 88.5294 67.0336 88.5392C68.8969 88.5489 70.6812 89.2935 71.9987 90.6111C73.3163 91.9286 74.0609 93.7129 74.0706 95.5762C74.0804 97.4395 73.3546 99.2315 72.0509 100.563L54.2697 118.36C53.6129 119.017 52.8327 119.538 51.9739 119.892C51.1152 120.247 50.1948 120.428 49.2658 120.426ZM45.922 116.7C46.809 117.586 48.0117 118.084 49.2658 118.084C50.5198 118.084 51.7225 117.586 52.6095 116.7L70.422 98.9065C70.8614 98.4672 71.2099 97.9456 71.4477 97.3715C71.6855 96.7975 71.8078 96.1822 71.8078 95.5608C71.8078 94.9395 71.6855 94.3242 71.4477 93.7502C71.2099 93.1761 70.8614 92.6545 70.422 92.2151C69.9826 91.7758 69.461 91.4273 68.887 91.1895C68.3129 90.9517 67.6977 90.8293 67.0763 90.8293C66.4549 90.8293 65.8397 90.9517 65.2656 91.1895C64.6916 91.4273 64.17 91.7758 63.7306 92.2151L45.9376 110.012C45.4983 110.451 45.1497 110.972 44.9119 111.546C44.6741 112.12 44.5517 112.735 44.5517 113.356C44.5517 113.977 44.6741 114.592 44.9119 115.166C45.1497 115.739 45.4983 116.261 45.9376 116.7H45.922Z" fill="#494A4C"/>
<path d="M45.0903 117.528C43.9845 116.421 43.3633 114.92 43.3633 113.356C43.3633 111.791 43.9845 110.291 45.0903 109.184L62.8872 91.4066C63.9942 90.2996 65.4955 89.6777 67.061 89.6777C68.6265 89.6777 70.1279 90.2996 71.2349 91.4066C72.3418 92.5136 72.9637 94.0149 72.9637 95.5804C72.9637 97.1459 72.3418 98.6473 71.2349 99.7542L53.438 117.547C52.8891 118.095 52.2376 118.529 51.5207 118.825C50.8037 119.12 50.0356 119.272 49.2601 119.27C48.4846 119.268 47.7172 119.113 47.0016 118.814C46.2861 118.515 45.6366 118.078 45.0903 117.528Z" fill="#494A4C"/>
<path d="M110.797 87.4541C114.229 84.0218 116.595 79.6699 117.61 74.9232C118.624 70.1764 118.243 65.2376 116.514 60.7023C114.784 56.167 111.78 52.2289 107.862 49.3629C103.945 46.497 99.2816 44.8256 94.4355 44.5503C89.5894 44.275 84.7672 45.4076 80.5503 47.8114C76.3335 50.2153 72.9021 53.7878 70.6701 58.0981C68.438 62.4083 67.5006 67.2723 67.9709 72.1034C68.4412 76.9344 70.2991 81.5263 73.3205 85.3252L68.1486 90.5009L72.1213 94.4736L77.2893 89.3056C82.1237 93.174 88.2148 95.124 94.397 94.7823C100.579 94.4407 106.418 91.8316 110.797 87.4541ZM80.4299 57.083C82.9179 54.5955 86.0876 52.9016 89.5382 52.2155C92.9889 51.5294 96.5655 51.8819 99.8158 53.2284C103.066 54.575 105.844 56.855 107.799 59.7804C109.753 62.7057 110.796 66.1449 110.796 69.663C110.796 73.1812 109.753 76.6204 107.799 79.5457C105.844 82.471 103.066 84.7511 99.8158 86.0976C96.5655 87.4442 92.9889 87.7967 89.5382 87.1106C86.0876 86.4245 82.9179 84.7306 80.4299 82.2431C78.7776 80.5912 77.467 78.63 76.5728 76.4715C75.6785 74.313 75.2183 71.9995 75.2183 69.663C75.2183 67.3266 75.6785 65.0131 76.5728 62.8546C77.467 60.6961 78.7776 58.7349 80.4299 57.083Z" fill="#EFEFF0"/>
<path d="M72.1211 96.1289L66.4922 90.5L71.7656 85.2227C67.844 79.8683 66.0893 73.2303 66.8528 66.6375C67.6163 60.0446 70.8415 53.9833 75.883 49.6668C80.9245 45.3504 87.4102 43.0972 94.042 43.3583C100.674 43.6194 106.962 46.3756 111.649 51.0751C116.335 55.7746 119.074 62.0707 119.317 68.7032C119.559 75.3356 117.288 81.8151 112.958 86.8446C108.627 91.8741 102.557 95.0825 95.9622 95.8277C89.3672 96.5728 82.7341 94.7998 77.3906 90.8633L72.1211 96.1289ZM77.1992 87.7344L78.0195 88.3907C82.6242 92.0891 88.4335 93.9547 94.3305 93.6287C100.227 93.3028 105.796 90.8084 109.965 86.625C113.239 83.3526 115.496 79.2029 116.464 74.6763C117.432 70.1498 117.07 65.4398 115.421 61.1145C113.773 56.7891 110.907 53.0332 107.172 50.2998C103.436 47.5663 98.9894 45.9721 94.3679 45.7093C89.7464 45.4466 85.1476 46.5266 81.1262 48.8191C77.1048 51.1116 73.8326 54.5186 71.7042 58.6292C69.5759 62.7398 68.6822 67.3784 69.1312 71.9855C69.5801 76.5926 71.3524 80.9714 74.2344 84.5938L74.8867 85.4141L69.8086 90.4922L72.125 92.8086L77.1992 87.7344ZM93.0039 88.625C88.6161 88.626 84.3638 87.1054 80.9715 84.3224C77.5792 81.5394 75.2568 77.6663 74.4001 73.363C73.5434 69.0596 74.2054 64.5924 76.2733 60.7224C78.3412 56.8525 81.687 53.8193 85.7406 52.1397C89.7942 50.4602 94.3048 50.2382 98.5037 51.5115C102.703 52.7849 106.33 55.4749 108.768 59.1231C111.206 62.7712 112.304 67.1519 111.874 71.5186C111.444 75.8852 109.513 79.9677 106.41 83.0704C104.651 84.8312 102.561 86.228 100.262 87.1811C97.962 88.1342 95.4971 88.6249 93.0078 88.625H93.0039ZM81.2539 57.9102C78.9299 60.2341 77.3472 63.195 76.706 66.4185C76.0648 69.6419 76.3939 72.9831 77.6516 76.0195C78.9093 79.0559 81.0392 81.6512 83.7719 83.4771C86.5045 85.3031 89.7173 86.2776 93.0039 86.2776C96.2905 86.2776 99.5033 85.3031 102.236 83.4771C104.969 81.6512 107.099 79.0559 108.356 76.0195C109.614 72.9831 109.943 69.6419 109.302 66.4185C108.661 63.195 107.078 60.2341 104.754 57.9102C103.211 56.3673 101.38 55.1434 99.3639 54.3084C97.3482 53.4734 95.1877 53.0436 93.0059 53.0436C90.824 53.0436 88.6635 53.4734 86.6478 54.3084C84.632 55.1434 82.8005 56.3673 81.2578 57.9102H81.2539ZM157.352 91.4961C156.502 91.4961 155.671 91.2441 154.964 90.772C154.258 90.2998 153.707 89.6288 153.382 88.8436C153.057 88.0585 152.971 87.1945 153.137 86.361C153.303 85.5275 153.712 84.7618 154.313 84.1609C154.914 83.56 155.68 83.1507 156.513 82.985C157.347 82.8192 158.211 82.9043 158.996 83.2295C159.781 83.5547 160.452 84.1054 160.924 84.812C161.396 85.5187 161.648 86.3494 161.648 87.1993C161.648 88.3389 161.196 89.4318 160.39 90.2376C159.584 91.0434 158.491 91.4961 157.352 91.4961ZM155.398 87.1758C155.404 87.4936 155.486 87.8053 155.639 88.0839C155.792 88.3625 156.011 88.5996 156.276 88.7745C156.542 88.9495 156.846 89.057 157.162 89.0878C157.478 89.1187 157.797 89.0718 158.091 88.9514C158.386 88.8309 158.646 88.6405 158.85 88.3967C159.054 88.1528 159.195 87.8629 159.261 87.5521C159.328 87.2413 159.317 86.919 159.231 86.6131C159.145 86.3072 158.985 86.0271 158.766 85.7969C158.496 85.5066 158.144 85.3052 157.756 85.2198C157.369 85.1343 156.965 85.1686 156.598 85.3183C156.231 85.468 155.918 85.7258 155.701 86.0576C155.484 86.3894 155.373 86.7794 155.383 87.1758H155.398ZM146.734 74.3516C146.062 74.3547 145.405 74.1581 144.845 73.7867C144.285 73.4153 143.848 72.8859 143.589 72.2658C143.331 71.6456 143.262 70.9625 143.393 70.3034C143.523 69.6442 143.846 69.0386 144.321 68.5635C144.796 68.0884 145.402 67.7651 146.061 67.6348C146.72 67.5045 147.403 67.5729 148.024 67.8315C148.644 68.09 149.173 68.5271 149.544 69.087C149.916 69.647 150.112 70.3047 150.109 70.9766C150.107 71.8711 149.751 72.7283 149.119 73.3608C148.486 73.9933 147.629 74.3495 146.734 74.3516ZM147.777 70.9688C147.778 70.7975 147.736 70.6287 147.656 70.4774C147.575 70.326 147.459 70.1968 147.317 70.1012C147.174 70.0055 147.011 69.9464 146.841 69.9289C146.67 69.9115 146.498 69.9363 146.339 70.0012C146.181 70.0661 146.041 70.1691 145.931 70.301C145.822 70.4329 145.747 70.5897 145.713 70.7576C145.678 70.9254 145.686 71.0992 145.735 71.2634C145.783 71.4276 145.872 71.5773 145.992 71.6993C146.138 71.8424 146.323 71.9395 146.523 71.9786C146.724 72.0177 146.931 71.9971 147.12 71.9193C147.309 71.8415 147.471 71.7099 147.585 71.541C147.7 71.372 147.763 71.173 147.766 70.9688H147.777Z" fill="#494A4C"/>
<path d="M105.328 179.836H102.985V177.492H105.328V179.836ZM99.0783 179.836H96.7345V177.492H99.0783V179.836ZM92.8283 179.836H90.4845V177.492H92.8283V179.836ZM86.5783 179.836H84.2345V177.492H86.5783V179.836ZM80.3283 179.836H77.9845V177.492H80.3283V179.836ZM74.0783 179.836H71.7345V177.492H74.0783V179.836ZM67.8283 179.836H65.4845V177.492H67.8283V179.836ZM61.4376 179.711C60.6128 179.621 59.7946 179.477 58.9884 179.281L59.5353 177.004C60.2478 177.179 60.9705 177.31 61.6994 177.395L61.4376 179.711ZM55.0822 177.891C54.3329 177.533 53.6075 177.127 52.9103 176.676L54.1798 174.723C54.7946 175.119 55.4339 175.477 56.0939 175.793L55.0822 177.891ZM49.6798 174.082C49.0913 173.498 48.5395 172.879 48.0275 172.227L49.8712 170.777C50.3236 171.354 50.8115 171.902 51.3322 172.418L49.6798 174.082ZM45.8244 168.719C45.4578 167.972 45.1382 167.204 44.8673 166.418L47.0861 165.656C47.3245 166.348 47.605 167.026 47.9259 167.684L45.8244 168.719ZM43.9454 162.379C43.8488 161.556 43.8018 160.727 43.8048 159.898H46.1486C46.1442 160.633 46.186 161.368 46.2736 162.098L43.9454 162.379ZM46.1486 155.992H43.8048V153.648H46.1486V155.992ZM46.1486 149.742H43.8048V147.398H46.1486V149.742ZM46.1486 143.492H43.8048V141.148H46.1486V143.492ZM46.1486 137.242H43.8048V134.898H46.1486V137.242ZM46.1486 130.992H43.8048V128.648H46.1486V130.992Z" fill="#A9AFC4"/>
<path d="M46.4756 18.3915L44.8184 20.0488L49.1494 24.3799L50.8067 22.7226L46.4756 18.3915Z" fill="#494A4C"/>
<path d="M46.7656 27.4297H40.6406V29.7734H46.7656V27.4297Z" fill="#494A4C"/>
<path d="M55.8281 14.0508H53.4844V20.1758H55.8281V14.0508Z" fill="#494A4C"/>
<defs>
<linearGradient id="paint0_linear_7001_24833" x1="99.3242" y1="151.113" x2="132.852" y2="151.113" gradientUnits="userSpaceOnUse">
<stop stop-color="#CACFDD"/>
<stop offset="1" stop-color="#EEF0F1"/>
</linearGradient>
<linearGradient id="paint1_linear_7001_24833" x1="52.5703" y1="97.7031" x2="118.168" y2="97.7031" gradientUnits="userSpaceOnUse">
<stop stop-color="#CACFDD"/>
<stop offset="1" stop-color="#EEF0F1"/>
</linearGradient>
</defs>
</svg>
