<svg width="143" height="25" viewBox="0 0 143 25" fill="none" xmlns="http://www.w3.org/2000/svg">
<rect x="0.545898" width="2" height="25" rx="1" fill="#4992FF"/>
<rect x="5.5459" y="6" width="2" height="13" rx="1" fill="#4992FF"/>
<rect x="10.5459" y="4" width="2" height="17" rx="1" fill="#4992FF"/>
<rect x="15.5459" y="7" width="2" height="11" rx="1" fill="#4992FF"/>
<rect x="20.5459" width="2" height="25" rx="1" fill="#4992FF"/>
<rect x="25.5459" width="2" height="25" rx="1" fill="#4992FF"/>
<rect x="30.5459" y="2.5" width="2" height="20" rx="1" fill="#4992FF"/>
<rect x="35.5459" width="2" height="25" rx="1" fill="#4992FF"/>
<rect x="40.5459" width="2" height="25" rx="1" fill="#4992FF"/>
<rect x="45.5459" y="6" width="2" height="13" rx="1" fill="#4992FF"/>
<rect x="50.5459" y="3" width="2" height="19" rx="1" fill="#4992FF"/>
<rect x="55.5459" y="5" width="2" height="15" rx="1" fill="#4992FF"/>
<rect x="60.5459" width="2" height="25" rx="1" fill="#4992FF"/>
<rect x="65.5459" y="4" width="2" height="17" rx="1" fill="#4992FF"/>
<rect x="70.5459" y="3.5" width="2" height="18" rx="1" fill="#4992FF"/>
<rect x="75.5459" y="3" width="2" height="19" rx="1" fill="#4992FF"/>
<rect x="80.5459" width="2" height="25" rx="1" fill="#4992FF"/>
<rect x="85.5459" y="4" width="2" height="17" rx="1" fill="#4992FF"/>
<rect x="90.5459" y="4" width="2" height="17" rx="1" fill="#4992FF"/>
<rect x="95.5459" width="2" height="25" rx="1" fill="#4992FF"/>
<rect x="100.546" width="2" height="25" rx="1" fill="#4992FF"/>
<rect x="105.546" y="5" width="2" height="15" rx="1" fill="#4992FF"/>
<rect x="110.546" y="5" width="2" height="15" rx="1" fill="#4992FF"/>
<rect x="115.546" y="2.5" width="2" height="20" rx="1" fill="#4992FF"/>
<rect x="120.546" y="2.5" width="2" height="20" rx="1" fill="#4992FF"/>
<rect x="125.546" y="2.5" width="2" height="20" rx="1" fill="#4992FF"/>
<rect x="130.546" y="2.5" width="2" height="20" rx="1" fill="#4992FF"/>
<rect x="135.546" width="2" height="25" rx="1" fill="#4992FF"/>
<rect x="140.546" width="2" height="25" rx="1" fill="#4992FF"/>
</svg>
